<?xml version="1.0" encoding="utf-8"?>
<!-- Generator: Adobe Illustrator 26.0.1, SVG Export Plug-In . SVG Version: 6.00 Build 0)  -->
<svg version="1.1" id="Group_495" xmlns="http://www.w3.org/2000/svg" xmlns:xlink="http://www.w3.org/1999/xlink" x="0px" y="0px"
	 viewBox="0 0 53 53" style="enable-background:new 0 0 53 53;" xml:space="preserve">
<style type="text/css">
	.st0{clip-path:url(#SVGID_00000001635271972307078630000006880517725450176700_);}
	.st1{fill:#FFE793;}
</style>
<g>
	<defs>
		<rect id="SVGID_1_" y="0" width="53" height="53"/>
	</defs>
	<clipPath id="SVGID_00000064349517021623821210000015182309682686752646_">
		<use xlink:href="#SVGID_1_"  style="overflow:visible;"/>
	</clipPath>
	<g id="Group_494" style="clip-path:url(#SVGID_00000064349517021623821210000015182309682686752646_);">
		<path id="Path_371" class="st1" d="M0,28v-3.1c0-0.2,0.1-0.3,0.1-0.5c0.2-1.4,0.4-2.9,0.7-4.3C4,7.2,16.3-1.3,29.5,0.2
			c5.2,0.6,10.2,2.7,14.1,6.2c0.1,0.1,0.3,0.2,0.5,0.4c0-0.3,0-0.5,0-0.7c0-1.6,0-3.3,0-4.9c0-0.5,0.2-0.9,0.7-1.1
			C45.2-0.1,45.7,0,46,0.3c0.3,0.3,0.5,0.7,0.4,1.2c0,9.4,0,18.8,0,28.3c0,0.5-0.2,1-0.6,1.3c-0.9,0.9-1.8,1.8-2.7,2.7
			c-0.9,0.9-1.4,0.9-2.3,0c-0.8-0.8-1.3-0.8-2.1,0c-1.9,1.9-3.8,3.8-5.7,5.7c-1.1,1-1.3,1.7-0.1,2.7c0.5,0.4,0.6,1.1,0.2,1.5
			c-0.1,0.1-0.1,0.2-0.2,0.2c-0.2,0.2-0.4,0.4-0.6,0.6c-0.3,0.4-0.3,1,0,1.4c0.4,0.4,1,0.4,1.4,0.1c0.2-0.1,0.3-0.3,0.5-0.4
			c0.9-0.9,1.4-0.9,2.3,0c0.8,0.8,1.3,0.8,2.1,0c2-2,4-4,6-6c0.1-0.1,0.1-0.1,0.2-0.2c0.5-0.4,0.6-1.1,0.2-1.6
			c-0.1-0.1-0.1-0.1-0.2-0.2c-0.1-0.1-0.2-0.2-0.3-0.3c-0.6-0.4-0.7-1.1-0.4-1.6c0.1-0.1,0.2-0.3,0.4-0.4c1.1-1.1,2.2-2.2,3.3-3.3
			c0.5-0.4,0.8-1.1,0.7-1.7c0-4.5,0-9,0-13.6c0-0.2,0-0.4,0-0.6c0-0.5,0.3-1,0.9-1.1c0.6-0.1,1.1,0.2,1.3,0.8
			c1.9,4.2,2.6,8.8,2.1,13.3c-0.5,5.5-2.8,10.7-6.5,14.8c-4,4.5-9.4,7.6-15.3,8.6c-1,0.2-2,0.3-3,0.4H25c-0.1,0-0.3-0.1-0.4-0.1
			c-4.1-0.3-8.1-1.5-11.6-3.6C6.3,45.4,1.7,38.7,0.4,31.1C0.2,30.1,0.1,29.1,0,28 M26.5,37.5c6.1,0,11-4.9,11-11c0-6.1-4.9-11-11-11
			s-11,4.9-11,11c0,0,0,0,0,0C15.5,32.6,20.4,37.5,26.5,37.5 M27.6,7.7c0-0.6-0.5-1.1-1.1-1.1c0,0-0.1,0-0.1,0
			c-0.8,0-1.7,0.1-2.5,0.2c-4.3,0.5-8.3,2.5-11.3,5.5c-0.5,0.4-0.5,1.1-0.1,1.6s1.1,0.5,1.6,0.1c0,0,0,0,0,0c0.4-0.3,0.7-0.6,1-0.9
			c2.4-2.1,5.4-3.5,8.5-4c1-0.2,2-0.2,3-0.3C27.2,8.8,27.6,8.3,27.6,7.7"/>
		<path id="Path_372" class="st1" d="M28.7,26.5c0,1.2-1,2.2-2.2,2.2c-1.2,0-2.2-1-2.2-2.2c0-1.2,1-2.2,2.2-2.2c0,0,0,0,0,0
			C27.7,24.3,28.7,25.3,28.7,26.5C28.7,26.5,28.7,26.5,28.7,26.5"/>
	</g>
</g>
</svg>
