<?xml version="1.0" encoding="utf-8"?>
<!-- Generator: Adobe Illustrator 26.0.1, SVG Export Plug-In . SVG Version: 6.00 Build 0)  -->
<svg version="1.1" id="圖層_1" xmlns="http://www.w3.org/2000/svg" xmlns:xlink="http://www.w3.org/1999/xlink" x="0px" y="0px"
	 viewBox="0 0 473 567" style="enable-background:new 0 0 473 567;" xml:space="preserve">
<style type="text/css">
	.st0{fill-rule:evenodd;clip-rule:evenodd;fill:#FFFFFF;}
	.st1{fill-rule:evenodd;clip-rule:evenodd;}
</style>
<g id="head_x2F_mono_x2F_Twists-2">
	<path id="_xD83C__xDFA8_-Background" class="st0" d="M398.7,256c-3.1-25-13-51.7-23.3-75c-23.3-49.4-76.8-56.1-124.6-66.4
		c-47.2-6.8-97.2-13.1-143.7,0.7c-26.1,6.4-36.4,37.5-32.2,62.1c2.4,15.3,9.3,29.8,15.3,44c11.8,29.2,19.3,60.4,19.3,91.9
		c-0.8,20.6-3.7,44.1,20,52.8c22.6,11.2,24.4,41.6,52.7,58.8c11.4,23.1,42.5,25.2,64.9,30.5c14.1,2.7,28.5,4.7,42.8,6
		c41.5,5.3,74.7-6.7,96.5-43.7c14.5-22.5,25.4-48.5,22.7-75.8C406.3,313.3,401.8,284.7,398.7,256z"/>
	<path id="_xD83D__xDD8D_-Ink" class="st1" d="M251.1,54.7c2.4-2.7,6-1.8,8.2,0.3c1.4,0.4,2.9,1.1,4.1,1.9c3-0.4,6.1-0.4,9-0.3
		c0.7-0.4,1.4-0.8,2.3-1.1c5.9-2.2,11.2-1.1,15.5,1.9c2.1-1.9,4.7-3.2,8-3c3,0.2,5.2,1.6,6.9,3.5c1.9-2.6,4.7-4.5,8.5-4.7
		c5.2-0.3,10.1,1.7,14.2,4.9c2.4-2.7,5.7-4.3,9.3-4.3c2.4-0.4,4.9-0.3,7.2,0.4c3.3,1,6.2,2.9,8.5,5.3c3.6-3.5,8.1-6,13.3-5.7
		c6.7,0.5,12.2,5.4,14.8,11.4c4.5,1.8,8.7,4.4,12.2,8c0.2,0.2,0.3,0.4,0.5,0.6c1.9,0.7,3.6,1.7,5.2,3c4.9,4.1,6,10.1,4.4,15.9
		c0.3,0.9,0.4,1.9,0.6,2.8c4.7,0.7,8.8,3.4,11.2,7.7c3.3,5.9,2.6,13.8-0.9,19.4c-1.5,2.5-3.5,4.5-5.6,6.3c2.5,5.6,1.3,12.2-2.7,16.7
		c-0.9,1.5-2.1,3-3.5,4.2c1.4,5.7-1.2,11.7-6.3,14.8l-0.4,1.1c-0.1,0.2-0.2,0.3-0.3,0.6c-0.1,0.3-0.2,0.5-0.2,0.7
		c-0.1,2-0.8,4.1-2.1,5.9c-2.7,3.9-6.1,6.4-7.9,10.9l-0.2,0.5c-0.8,2.1-3.3,3.6-5.4,3c11.8,24.2,18,51.2,22.2,77.5
		c2.1,13.2,3.7,26.4,5.1,39.7l1.3,13.2c1.2,11.8,2.2,23.5,2.2,35.3c0,26.6-7.6,52.3-24,73.6c-15.5,20-37.4,34.6-62.1,40.3
		c-25.5,5.9-55.6,3.6-78.5-10c-6.8-4-0.8-13.5,6-10.3c13,6.1,26.2,10.6,40.7,11.6c14,1,28.2-0.8,41.5-5.4
		c22.1-7.6,40.8-23.6,52.9-43.5c5.9-9.8,10.2-20.4,12.5-31.6c2.9-14,2.5-28.5,1.4-42.6l-0.1-0.9c-2-27.3-4.8-54.8-9.2-81.8
		c-3.9-23.9-9.9-47.3-17.7-70.3c-3-2.7-6.4-4.9-10.1-6.6c-26.7-1.1-53.5-0.8-80.2,1c-22.7,1.6-45.4,4.2-68,8.2l-2.4,0.4
		c-5,0.8-10.5,1.4-15.2,3.4c-4.1,1.7-5.7,5.1-6.7,9.1c-2.5,10.3-3,21.6-3.4,32.1c-0.4,10.3,0.5,20.7-0.3,31
		c-0.7,8.6-2.9,17.4-9.3,23.7c-3.4,3.3-7.4,5.1-11.3,7.5c-2.5,1.6-3.6,3.2-3.2,6.2c0.7,6.5,5.9,14.6,0.1,20.2c-1,0.9-2.8,1.1-3.8,0
		c-2.5-2.6-5.7-4.7-8.6-6.8c-1.2-0.8-0.2-2.6,1.2-1.9c1.8,0.8,3.6,1.8,5.5,2.6c-4.1-3.4-10-5.1-14.9-6.1c-2.5-0.5-5.1-0.7-7.6-0.4
		c-1.9,0.9-3.8,1.8-5.7,2.5c-2.5,1-4.9,1.9-7.4,2.9c-8.7,7.1-12.9,18.6-11,29.8c1,6.2,3.9,12.9,9.3,16.6c6.4,4.3,15,2.5,21.9,5.7
		c6.5,3,10.4,9,13.4,15.2l1.3,2.6c2.7,5.7,5.6,11.3,9.3,16.6c4.3,6.1,9.6,11.5,15.4,16.1c2.8,2.3,5.8,4.3,8.9,6.2l0.8,0.5
		c3.1,1.9,5.4,3.6,5.6,7.4c0.1,1.4-0.8,2.6-1.9,3.3c-4.7,3-9.5-0.8-13.4-3.4c-4.2-2.8-8.3-6-12.1-9.5c-7.2-6.6-13.4-14.4-18.1-22.9
		c-3.6-6.4-5.7-15.6-11.4-20.5c-3.5-3-8.5-3-12.9-3.6c-4.1-0.5-7.9-1.4-11.5-3.4c-14.7-8.2-18.9-28-15.4-43.3
		c0.6-2.6,1.4-5.1,2.5-7.5c-5.5,0.9-11.7-4.7-9.4-10.5c0.2-0.4,0.3-0.8,0.6-1.3c-3.6-2.4-6.4-6-7.8-10.7c-0.7-2.5-0.8-4.9-0.4-7.3
		c-1.8-1.2-3.2-2.8-4.1-4.7c-2.9-1.4-5.5-3.4-7-6.3c-2.1-4-1.9-7.6-0.3-10.9c-0.3-0.4-0.4-0.8-0.7-1.3c-5.9-3.8-10.1-10.3-9.6-17.5
		c0.2-2.4,0.8-4.6,1.7-6.5c-0.1-0.3-0.2-0.5-0.3-0.8c-5-2.5-9.1-6.7-10.6-12.3c-1.4-5.6,0.3-11.2,3.7-15.5
		c-5.1-3.7-8.1-8.9-6.3-16.7c0.8-3.2,2.3-6.1,4.3-8.5c0-0.1,0-0.2,0-0.3l-0.5-0.3c-6.3-4.9-9.9-11.2-6-19c1.7-3.5,4.1-5.9,7.1-7.5
		l0.2-0.4l0,0c-2-4.4-2.8-9.4-1.4-14.5c1.2-4.2,4-7.7,7.4-9.9c-0.3-1.9-0.2-4,0.2-6.2c0.7-3.7,2.5-7,5.2-9.3c0.1-0.5,0.3-1,0.3-1.4
		c0.8-2.9,2.5-6.1,4.5-8.5c1.6-1.9,3.5-2.7,5.7-2.8c-0.2-1.8-0.1-3.6,0.3-5.5c1.1-5.7,4.8-11.2,10.2-13.6c2.2-1,4.6-1.3,6.8-1
		c1.9-4.1,5.7-7,10.3-7.6c1.8-0.3,3.5-0.3,5,0c0.8-0.4,1.8-0.8,2.7-1.1c0.6-0.3,1.3-0.4,1.9-0.6c2.1-2.6,5-4.8,8.3-6.1
		c3.8-1.4,7.7-1.4,11.1-0.1l1.1-0.3l0,0c1.7-3,4.4-5.2,8.6-6.3c4.7-1.2,9.6,0.5,13.4,3.5c0,0,0,0,0.1,0c1.9-4.4,5.3-7.4,10.9-7.2
		c3.5,0.2,6.7,1.9,9,4.3c1.4-0.2,2.7-0.3,4.1-0.5c1.4-1.7,3-3.3,4.8-4.7c2.9-2.3,6.7-2.1,8.8,1.1c0.5,0.7,0.9,1.4,1.4,2.1l1.9-0.2
		l0,0c2.3-3.1,5.4-5.2,9.7-5.3c4-0.2,6.8,1.8,8.9,4.5c1.8,0,3.5-0.1,5.2-0.1c2-2.4,4.4-4.4,7.2-6.2c2.1-1.4,5.2-0.8,6.8,0.9
		c1.2,1.2,2.2,2.5,3.2,3.7C243.9,57.3,247.4,55.4,251.1,54.7z M126.7,323.2c4-2.3,9.2,0.2,13.1,2.1c4.7,2.4,9.3,5.8,12.1,10.2
		c3.9,6-5.2,10.8-9.3,5.5c-2.5-3.3-4.5-6.7-7.5-9.6c-2.8-2.6-6.8-4.4-8.4-7.9C126.5,323.3,126.5,323.3,126.7,323.2z M129.4,177.9
		l0.1-0.2c1.1-3-3.8-4.4-4.9-1.4c-1.7,4.7,0.3,9.6,4.8,11.7c1.3,0.6,2.7,0.3,3.5-0.9c0.7-1.1,0.3-3-0.9-3.5
		C129.4,182.5,128.5,180.4,129.4,177.9L129.4,177.9z M87.2,169.3c2.5-2.2-1.2-5.7-3.6-3.6c-2.3,2-4,4.7-3.6,7.9
		c0.4,3.2,2.9,5.5,5.5,7c2.8,1.7,5.3-2.7,2.5-4.4l-0.3-0.2c-1.2-0.8-2.5-1.7-2.7-3.1C84.9,171.4,86.2,170.2,87.2,169.3z
		 M101.1,131.1l0.2-0.2c2.6-1.9,0.1-6.3-2.5-4.4c-2.5,1.8-4.4,4-4.7,7.1c-0.2,3,1.4,5.7,3.4,7.8c2.3,2.4,5.8-1.2,3.6-3.6
		C98.9,135.6,98.5,133.1,101.1,131.1L101.1,131.1z"/>
</g>
<g>
	<g id="face_x2F_Old" transform="translate(112.183099, 77.354207)">
		<path id="_xD83D__xDD8D_-Ink_00000005259224711102964410000001725203649776604049_" class="st1" d="M209.4,344.2
			c-6.2,0.1-13-2.3-17.7-4.1l-1.2-0.5c-4-1.6-8.1-3.5-11.2-6.5c-1-1-2-2.1-2.5-3.3c-0.3-0.7-0.4-1.4-0.2-2.1
			c1.1-0.1,2.2-0.3,3.1-0.4c0.5-0.1,0.9-0.2,1.3-0.2c1.3,0,2.5,0.2,3.8,0.3c0.2,0,0.3,0.1,0.6,0.1c1,0.1,1.9,0.3,3,0.4
			c2.9,0.4,5.7,0.8,8.5,0.9c2.1,0.1,4.3,0,6.5-0.2c5.7-0.3,11.7-0.8,16.1,3.3c1.2,1,1.6,2.4,1.6,3.7c0,1.6-0.7,3.3-1.8,4.7
			C217,343.1,213.3,344.2,209.4,344.2z M242.9,283.5c-2.7,4-7.1,6.6-13.3,6.3c-12.2-0.6-26.6-5.2-36.8-11.8
			c-2.6-1.7-4.4-4.5-4.7-7.4l-0.5-5.2l-3,4.4c-0.3,0.4-0.6,0.9-0.9,1.4c-0.8,1.3-1.7,2.5-2.5,3.8c-3.1,4.9-5.9,9.9-8.5,15.1
			c-1.9,3.7-3.1,7.9-4.5,12c-2.3,7-4.5,14-9.3,18.9c-0.8,0.8-1.9,1-2.9,0.8c-0.9-0.1-1.8-0.6-2.2-1.4c-5.7-11.8,2-25.9,8.3-35.8
			l0.7-1c5.8-8.9,15.4-20.6,26.3-22.2l1.3,2l1.9-1.2c3-1.9,6.9-1.9,10.3-0.3l3.5,1.5c6.4,2.9,12.7,5.5,19.6,7c0.5,0.1,1,0.2,1.5,0.3
			c0.5,0.1,0.9,0.2,1.4,0.3c-0.1-0.5-0.3-0.9-0.3-1.4s-0.3-1-0.3-1.5c-0.2-0.5-0.3-1-0.4-1.5c-0.6-2-1.2-4.1-1.9-6
			c-2.8-7.4-7.3-14.3-11.6-20.8l-0.5-0.8c-0.6-0.9-1.3-1.9-2-3c-3.4-4.9-7.1-10.1-7.4-15.5c4.5,0.3,8.3,3,11.6,5.5
			c4.6,3.3,8.8,7.2,12.6,11.3c7.4,8,14,18.3,17,28.9C246.8,272.2,246.1,278.8,242.9,283.5L242.9,283.5z M124.4,222.9v-0.3
			c0-6.2,3.6-20.1,12.4-20.1c5.5,0,8.9,9.6,9.5,19.4v0.4c0.3,6.1-1.4,19.4-9.5,19.4C128.6,241.7,124.5,229,124.4,222.9L124.4,222.9z
			 M254.3,220.9v-0.3c0-6.2-3.6-20.1-12.4-20.1c-5.4,0-8.7,9-9.4,18.6l-0.1,0.8c-0.3,5.9,1.2,19.9,9.5,19.9
			C250.1,239.8,254.3,227.1,254.3,220.9L254.3,220.9z M154.1,181.4c-1.2,0.2-2.4,0.3-3.5,0.5c-3.4,0.5-6.8,1.2-10.1,1.9
			c-6.3,1.4-12.7,3.2-18.9,5.3c-5.8,1.9-11.5,4.1-17.2,6.3c-0.3,0.1-0.6,0.3-0.9,0.3c-2,0.8-4.1,1.6-6,2.5c-3,1.4-6.2,2.6-9.3,3.6
			c8.3-11.4,21.1-20,33.3-26c7-3.5,14.5-6.3,21.9-8.5l4.1-1.3c6.2-1.8,12.9-3.5,18.6,0.2c2.3,1.4,3.7,3.6,4.2,6
			c0.4,2.4-0.1,4.9-1.7,7c-1.4,1.9-3.2,2.9-5.1,3.2c-2,0.4-4.2,0-6.3-1.1c-1.6-0.1-2.1-0.1-2.5,0L154.1,181.4z M246.3,182.5
			c-4.1-0.9-8.2-1.3-12.3-1.1c-1.9,0.1-3.7,0.3-5.6,0.7c-2.9,0.4-5.7,0.9-8.8,0.3c-1.6-0.3-3-1.3-4.1-2.5c-1.3-1.4-2-3.3-2.3-5
			c-0.3-1.8,0-3.4,0.7-4.7c0.8-1.6,2.1-3,3.7-4.2c4.8-3.6,13.1-2.8,18.9-2c5.7,0.8,11.2,2.5,16.2,5.2c4.9,2.7,9.2,6.4,12.5,11
			c2.8,3.8,4.1,8.2,5.5,12.7C264.3,187.4,254.5,184.2,246.3,182.5z"/>
	</g>
</g>
<g id="accessories_x2F_Glasses-5">
	<path id="_xD83D__xDD8D_-Ink_00000095299159592830307930000006390038434235369109_" class="st1" d="M393.1,304.2
		c-2.3,6.2-5.8,12.7-10,17.9c-17.2,14.6-33.9,6.5-42.4-13.3c-3.2-14,5.3-29,14.4-39.3c13.1-13.1,34.5-6.2,40.5,9.4
		c0.4,2,0.6,4,0.7,6.1c-0.1,6.5-0.9,12.1-3.2,18.3 M227.6,291.7c22.7-27,65.1-28.4,64,13.1C286.8,357.3,204.7,344.4,227.6,291.7z
		 M400.2,269.2c-0.8-1.3-1.7-2.6-2.6-3.9c-0.4-0.2-0.6-2.1-1.9-2.2c-17.5-19.3-48.2-8.3-59.3,10.9c-2,2.4-3.7,5.3-4.9,8.3
		c-10.9-2-23.7-1.6-33.9,2.5c-10.1-26.3-40.6-28.7-60.7-17.4c-12.5,6.2-20.6,19-32.8,26.1c-28.6,2.1-59.3-4.4-87.4,2.8
		c-22.2,4.6-3.6,15.8,0.1,8.3c26.5-7.8,57.9-1.2,85.4-3c2.9,4.8,8.3,8.8,13.8,8.6c5.9,52.3,82.2,43.7,84.8-2.9
		c3-4.7,6.7-9.2,12-12.2c2-0.4,4-1,5.8-1.8c3.1-0.4,7.8,0.9,10.6,3.4c9.7,58.1,65.4,51.3,75.4,0.4c0.2-0.2,0.8-1,1.2-2.2
		c3.4-4.5,11.8-6.2,10.4-13.8C415.1,273.6,405.5,273.7,400.2,269.2z"/>
</g>
<g id="facial-hair_x2F_Moustache-6">
	<path id="_xD83D__xDD8D_-Ink_00000048473291946197265440000004704917281534059924_" class="st1" d="M352.2,365.7
		c-4.5-2.1-9.4-3.4-14.4-3.8c-2.2-0.2-6.4-0.8-8.7,0.6c-1.1,0.7-2,1.6-2.7,2.7c-0.3-0.4-0.7-0.7-0.9-1.1c-1.3-2.3-9-2.3-11.3-2.1
		c-5.5,0.5-10.9,1.8-16,3.9c-9.1,3.9-16.7,12.1-14.3,22.4c0.3,1.5,2,2,3.3,1.8c9.1-1.7,18.2-3.4,27.3-5.1c2.1-0.4,4.2-0.8,6.3-1.2
		c1.9-0.4,4.3-0.5,6.1-1.3c0.7,0.3,1.5,0.5,2.4,0.7c11,2.2,21.9,4.3,32.9,6.4c1.3,0.3,3-0.4,3.3-1.9
		C367.1,378,360.9,369.8,352.2,365.7"/>
</g>
</svg>
