<?xml version="1.0" encoding="utf-8"?>
<!-- Generator: Adobe Illustrator 26.0.1, SVG Export Plug-In . SVG Version: 6.00 Build 0)  -->
<svg version="1.1" id="圖層_1" xmlns="http://www.w3.org/2000/svg" xmlns:xlink="http://www.w3.org/1999/xlink" x="0px" y="0px"
	 viewBox="0 0 473 567" style="enable-background:new 0 0 473 567;" xml:space="preserve">
<style type="text/css">
	.st0{fill-rule:evenodd;clip-rule:evenodd;fill:#FFFFFF;}
	.st1{fill-rule:evenodd;clip-rule:evenodd;}
</style>
<g id="head_x2F_mono_x2F_Short-2">
	<path id="_xD83C__xDFA8_-Background" class="st0" d="M393.5,219.9c11-7.9-5.4-33.8-11-41.4c-4.8-10-9.6-20.1-14.4-30.1
		c0.6-8.3-7.4-15.6-15.4-13.1c-6.9-5-18.5-2.6-22,5.2c-76.4-33.3-208.6-19.4-215.4,83.3c-14.8,29.2-29.4,58.8-42.5,88.8
		c-18.2,1-27,23.1-16.2,37.4c1.4,23.2,16.2,25,35.8,24c7.9,2.1,16.1,3.2,21.9,9.3c4.5,4.6,7.5,10.4,10.5,16.1
		c13.6,26.1,30.9,48.7,54.3,66.6c36.4,27.3,85.8,46.8,131.2,33.6C407.9,461.1,427.1,307.8,393.5,219.9L393.5,219.9z"/>
	<path id="_xD83D__xDD8D_-Ink" class="st1" d="M189.6,70.6c63.9-14.8,135.5,5.1,179.7,54c3.1,3.5,2.8,7.9,0,10.9
		c1.3,1.1,2.5,2.1,3.8,3.2c1.3,1.2,1.2,3.4,0,4.5c-1.2,1.2-3.5,1.3-4.5,0l-1.5-2c-0.8-1-1.5-2-2.3-3c-0.9,0.3-1.8,0.7-2.7,1.1
		c13.6,8.9,24.8,21,32.5,35.3c8.4,15.6,13.7,32.1,17.2,49.4c6.2,30.8,7.1,62.4,6.3,93.8v1.6c-1.1,37.8-4.7,76.2-20.7,110.9
		c-12.8,27.8-35.5,53.4-63.9,65.6c-16.3,7-34,10-51.8,8.8c-9.4-0.7-18.8-2.1-27.9-4.4l-2.2-0.6c-8.4-2.1-16.9-4.5-24-9.2
		c-7.3-4.9-2.4-14.6,5.7-13.5c9.7,1.4,18.9,5.5,28.5,7.6c9.4,2,18.9,3.2,28.6,2.9c17-0.5,32.5-5.7,46.6-15.2
		c53.9-36.3,60.4-109.4,61.7-168.5c0.7-28.8-0.4-58.1-7-86.3c-6.3-27.1-17.3-53.8-32.9-76.9c-3.5,1.3-6.8,2.3-10.5,2.7
		c-6.5,3.9-14.2,4-21.7,4h-1.1c-7.8,0-15.7-0.5-23.5-1.2c-27.5-2.4-55.9-8.7-83.6-4.7l-1.2,0.2c-11.4,1.7-25.5,5.3-33.8,13.5
		c-9,8.8-3,25.6,4.1,30.9c4.6,3.5,6.1,11.2,0,14.3c-12,6.2-41,2.8-44.2,6.2c-3.9,4.1-3.7,10.3-3.8,15.7v0.4
		c-0.4,15.1,0,30.2,1.3,45.3c1.3,14.6,4,29.2,4.6,43.8c0.2,4.8-5.6,6.3-8.8,3.7c-0.7-0.5-1.3-1-1.9-1.4c-5.8-4.1-12.3-5.9-19.4-6.9
		c-0.4-0.1-0.7-0.3-0.9-0.5l-0.1-0.1l-0.8,0.6c1.4,1.8,2.7,3.8,3.7,6.2c0.2,0.5-0.2,1.1-0.8,0.8c-9.7-5.8-20.4-8.3-31.5-5.9
		c-10.1,2.1-19.2,8.6-22.2,18.8c-2.7,9.4-0.8,20.3,5.4,28.1c9,11.5,23.7,10.5,36.8,11c2.6,0.1,5.5,1.3,6.6,3.8
		c1.4,2.9,1.3,4.9,0,7.8c-0.2,0.4-0.4,0.8-0.7,1.2c1.2,1,2.2,1.9,3.2,3l3.5,3.5c2.3,2.4,4.7,4.8,6.9,7.2
		c6.6,7.2,12.8,14.9,18.7,22.7l0.6,0.8c6.8,9.4,13.9,22.9,25.9,25.9c4,1.1,7.9,3.1,9,7.4c1.3,4.4-1.6,8.7-5.5,10.6
		c-6.6,3.2-15.1-0.6-20.6-4.6c-11.8-8.8-19.6-23-26.8-35.5l-2-3.5c-3.8-6.4-7.4-13-10.5-19.8c-1.7-3.8-3.7-7.7-5.4-11.6
		c-0.5-1.2-1-2.3-1.3-3.5c-0.5,0.1-1.1,0.2-1.5,0.2c-15.5,1-33.8-1.5-45.3-13.7c-15.9-16.6-17.7-46.3,0.3-62.1
		c1.9-1.6,4-3.2,6.3-4.4c-3.2-5.5-5.4-11.7-6.9-17.7c-2.3-8.7-3.6-17.4-4.2-26.3c-1.3-18.2,0.9-36.6,5.2-54.3
		C76.1,138.7,124.7,85.7,189.6,70.6z M74.6,336c-3.2-18.2,33.3-4.7,41.3-3.5h0.2c9.1,1.3,4,17.3-4.9,12.5l-0.3-0.2
		c-4.8-2.8-10.2-4.8-15.3-7.1l-1.1-0.5c-4-1.9-17.4-10.7-18.8-1.3C75.6,336.5,74.7,336.5,74.6,336z"/>
</g>
<g id="face_x2F_Old">
	<path id="_xD83D__xDD8D_-Ink_00000167362518424918955480000016440165537715685765_" class="st1" d="M312.5,421.9
		c-6.8,0.1-14.5-2.5-19.6-4.5l-1.3-0.6c-4.4-1.8-9-3.8-12.4-7.2c-1.1-1.2-2.2-2.4-2.8-3.7c-0.4-0.8-0.5-1.5-0.2-2.4
		c1.3-0.1,2.4-0.3,3.5-0.5c0.5-0.1,1.1-0.2,1.4-0.2c1.4,0,2.8,0.2,4.2,0.4c0.2,0,0.4,0.1,0.6,0.1c1.1,0.1,2.2,0.3,3.3,0.4
		c3.2,0.4,6.3,0.9,9.5,1c2.3,0.1,4.7,0,7.2-0.2c6.3-0.4,13-0.9,17.9,3.7c1.3,1.2,1.8,2.6,1.8,4.1c0,1.8-0.8,3.7-1.9,5.1
		C321.1,420.8,316.9,421.9,312.5,421.9z M349.8,364.5c-3,4.4-7.9,7.3-14.7,7c-13.5-0.6-29.5-5.7-40.9-13.1c-3-1.9-4.8-5-5.2-8.3
		l-0.6-5.9l-3.3,4.9c-0.4,0.5-0.7,1.1-1.1,1.5c-1,1.3-1.9,2.8-2.8,4.2c-3.5,5.5-6.6,11-9.4,16.8c-2,4.1-3.6,8.7-5,13.4
		c-2.5,7.8-4.9,15.5-10.3,21c-0.8,0.9-2,1.2-3.2,1c-1-0.1-2-0.6-2.5-1.6c-6.4-13.1,2.2-28.8,9.2-39.7l0.8-1.2
		c6.4-9.9,17.1-23,29.2-24.7l1.3,2.2l2-1.3c3.3-2.2,7.7-2.1,11.4-0.4l3.8,1.7c7.1,3.2,14.1,6.2,21.8,7.8c0.6,0.1,1.2,0.2,1.6,0.3
		c0.5,0.1,1.1,0.2,1.6,0.3c-0.1-0.5-0.2-1.1-0.4-1.5c-0.1-0.6-0.3-1.1-0.4-1.6c-0.2-0.6-0.3-1.2-0.5-1.7c-0.6-2.2-1.3-4.4-2.1-6.6
		c-3.1-8.2-8.1-15.9-12.9-23.2l-0.6-0.9c-0.7-1.1-1.4-2.1-2.2-3.3c-3.8-5.4-7.9-11.3-8.3-17.2c5,0.3,9.1,3.5,12.9,6.2
		c5,3.8,9.7,8,13.9,12.5c8.3,8.9,15.6,20.3,18.8,32.1C354,352,353.3,359.3,349.8,364.5L349.8,364.5z M218.1,297.2v-0.3
		c0-6.8,3.9-22.4,13.8-22.4c6.2,0,9.8,10.6,10.5,21.5v0.5c0.3,6.8-1.5,21.6-10.5,21.6C222.9,318.2,218.2,304.1,218.1,297.2
		L218.1,297.2z M362.5,295.1v-0.3c0-6.8-3.9-22.4-13.8-22.4c-6,0-9.6,10.1-10.5,20.7l-0.1,0.9c-0.4,6.5,1.3,22,10.5,22
		C357.7,316.1,362.4,302,362.5,295.1L362.5,295.1z M251.1,251.2c-1.3,0.2-2.6,0.4-3.8,0.6c-3.8,0.6-7.5,1.3-11.3,2.1
		c-7.1,1.6-14.1,3.7-21,5.9c-6.4,2.1-12.8,4.5-19.1,6.9c-0.4,0.1-0.7,0.3-1.1,0.4c-2.2,0.9-4.4,1.8-6.7,2.8c-3.4,1.4-6.8,2.9-10.3,4
		c9.2-12.7,23.4-22.1,37-28.8c7.8-3.8,16.1-6.9,24.3-9.5l4.6-1.3c6.8-2,14.2-3.8,20.7,0.1c2.5,1.5,4.1,4,4.6,6.7
		c0.5,2.6-0.1,5.4-1.8,7.8c-1.5,2-3.6,3.2-5.6,3.6c-2.3,0.5-4.7,0-6.9-1.3c-1.7-0.1-2.3-0.1-2.8,0L251.1,251.2z M353.6,252.4
		c-4.5-1-9-1.3-13.8-1.3c-2.1,0.1-4.1,0.4-6.2,0.7c-3.2,0.5-6.3,1.1-9.7,0.4c-1.8-0.3-3.3-1.3-4.4-2.7c-1.3-1.6-2.3-3.7-2.6-5.6
		c-0.3-2,0-3.8,0.8-5.3c0.9-1.8,2.3-3.4,4.1-4.7c5.4-4,14.6-3.1,21-2.3c6.3,0.8,12.5,2.8,18.1,5.9c5.5,3.1,10.2,7.1,13.9,12.2
		c3.1,4.2,4.6,9.1,6.2,14C373.6,257.9,362.6,254.4,353.6,252.4z"/>
</g>
<g id="accessories_x2F_Glasses-3">
	<path id="_xD83D__xDD8D_-Ink_00000093159593134631244860000003841786457234065799_" class="st1" d="M386.1,324.9
		c-5.9,7.9-16.6,10.4-26.7,9.5c-21.5-2-28.4-26.5-29.1-45.6c14.5,4-1.3-24.7,48.2-28c17.4-1.4,12.6,9,20.4,16.7
		C398.7,293.8,396,311.4,386.1,324.9 M283.3,306.6c-12.7,59.7-82.4,45.6-89.8-8.2c6.7-4.8,5-16.5,13.4-20.9c13.3-8.6,30-8.2,45.1-8
		c19.3,1.3,24.9,9.3,34.8,18.1C286.2,293.4,284.8,300.3,283.3,306.6 M413.6,251c-0.7-0.1-1.4-0.2-2.1-0.3c-0.6-0.3-1.3-0.6-2-0.7
		c-1.7-0.5-3.5-0.8-5.2-0.9c-24.8-5.6-82.1,2.4-84.5,23.7c-7.9,2.7-14.7,0.3-23.8,0.6c-7-29.1-127.4-24.8-133.2-7.3c0,0,0,0-0.1,0
		c-5.6-1.7-13.8-1.3-20.1-1.5c-13.6-0.3-27.2,1-40.5,3.8c-24.9,4-58.9,8.7-41.5,39.8l0,0l0,0c3,3.1,8.1,0.6,8.3-3.6
		c-5.9-14.7,7.3-16.5,17.4-20.8c25.2-9,50.9-10.4,76.9-7.6c1.9,2.3,4.9,4.3,8.1,5.4c17.4,2.9,8.3,15.8,19.2,17.7
		c-1.9,45.1,52.8,69.5,84.4,39.9c12.6-12.4,15.7-30.7,18.6-47.2c1.5-0.4,2.5-1.2,3.1-2.3c3.8-3.8,6.1-7.2,13.5-8.2
		c7.4-1.1,13.1,1.1,13.8,1.6c0.2,0.4,0.4,0.8,0.7,1.2c0.4,0.6,0.8,1.1,1.3,1.4c-7.2,44.9,27.6,73.2,62.8,49.9
		c15.3-14.4,18.5-36.3,19-56.1c2.1-1.3,3.4-3.7,2.7-6.7c-1-4.2,1.3-7.8,5-9.6C419.9,260.5,419,251.8,413.6,251"/>
</g>
</svg>
