<?xml version="1.0" encoding="utf-8"?>
<!-- Generator: Adobe Illustrator 26.0.1, SVG Export Plug-In . SVG Version: 6.00 Build 0)  -->
<svg version="1.1" id="圖層_1" xmlns="http://www.w3.org/2000/svg" xmlns:xlink="http://www.w3.org/1999/xlink" x="0px" y="0px"
	 viewBox="0 0 473 567" style="enable-background:new 0 0 473 567;" xml:space="preserve">
<style type="text/css">
	.st0{fill-rule:evenodd;clip-rule:evenodd;fill:#FFFFFF;}
	.st1{fill-rule:evenodd;clip-rule:evenodd;}
</style>
<g id="head_x2F_mono_x2F_Long">
	<path id="_xD83C__xDFA8_-Background_00000027579903701996784460000006031286308967582397_" class="st0" d="M392.8,215.5
		c-2.6-43.5-16.8-92.8-58.3-114.1C243,64.6,122.6,157.1,116.2,251.6c-2.2,32.4,15.7,67.7,48.6,76.7c7.3,9.7,18.3,15.6,29.2,20.7
		C323.8,416.4,407.6,361.6,392.8,215.5L392.8,215.5z"/>
	<path id="_xD83D__xDD8D_-Ink_00000139260817973839140400000013231045855941218481_" class="st1" d="M422.4,188.4
		c-4.6-12.7-9.4-25.4-14.5-37.9c-5-12.2-9.4-24.7-15.6-36.3c-36.8-69.4-103.8-69.4-138.4-60.4c-17.9-7.7-51.6-5.6-70.2,1.4
		c-30.2,11.3-67.1,55.7-79.7,75.7C76.1,175,58.7,233.7,77.2,284.6c2.4,6.7,5.5,12.8,9,18.8c-2.2,3-4.7,5.8-7.5,8.5
		c-8.3,8.2-16.6,16.1-23.7,25.4c-7.1,9.2-13,19-17.4,29.7c-8.3,20.3-8.7,43.3,2.3,62.7c9.5,16.9,26.4,29.4,45.4,30.6
		c1,0.1,2,0.3,2.9,0.4c2.5,4.1,5.6,8,9.1,11.3c10.7,10.2,36.3,15.4,50.9,15.8c0.7,0.6,1.5,1.2,2.3,1.8c8.9,7,18.3,14.1,28.5,19.1
		c6.9,3.4,16,6.2,23.3,3.8c3.3,2.2,8.7,1.7,11.9-0.1c5.4-3,9.7-8.3,12.4-13.7c6.4-13.2,4.9-27.7,3.2-41.8
		c-1.8-15.6-3.6-31.2-5.3-46.8c-1.4-12.2-2.8-24.6-6.6-36.3c-1.9-6.1-4.4-11.9-7.7-17.4c0.1-0.5,0.1-0.9-0.1-1.4
		c-1.1-3.5-3.3-5.3-5.9-7.6c-0.3-0.3-0.7-0.6-1-0.9c-1.3-1.5-2.7-2.9-4.2-4c-0.6-0.6-1.1-1.2-1.7-1.8c-4.7-4.9-9.2-10.1-13.1-15.7
		c-3.8-5.4-7.3-11-10.6-16.7c-3.3-5.8-5.6-12.2-8.9-18c-0.3-0.5-1-0.6-1.4-0.2c-1,1.1-1.7,2.3-1.6,3.5l-0.5,0.1
		c-0.2-1.9-1.9-3.4-4.3-3c-3.5,0.6-6.4,0.8-9.5-0.3c0.5-3.6,1-7.2,1.5-10.7c0.9-6.6,1.7-13.2,2.4-19.8c1.7,0.4,3.4,1,5.1,1.8
		c2.4,1.1,4.6,2.5,6.6,4.3c1.9,1.7,3.2,4.1,5.5,5.3c2.7,1.4,5.9-0.9,5.1-3.9c-1.6-6.1-10.6-9.6-16.1-10.8c-1.9-0.4-3.9-0.6-5.8-0.5
		c0.4-4.3,0.8-8.5,1.2-12.8c0.2-2,0.3-4,0.4-6c4.3-1.3,8.9-1.7,13.4-1.1c1.5,1.2,3,2.3,4.4,3.5c4.6,3.8,9.1,7.5,13.6,11.4
		c0.4,0.3,0.8,0.7,1.2,1c2.7,2.3,6,0,5.5-3.2c-3.6-26.5,12.6-47.6,31.6-64c21.1-18.1,59.3-20.2,84.4-51.6
		c11.5,2.3,37.3,9.3,47.9,26.2c14.9,23.7,12.9,45,14.1,71.9c1.1,26.9,4,55-2.1,81.6c-5.6,24.5-20.9,45.4-44.6,55
		c-0.6,0.2-1.2,0.5-1.8,0.7c-12.3,4.6-25.6,5.9-38.5,3.5c-14.3-2.7-26.2-9.2-38-17.3c-0.7-0.5-1.7,0.5-1.2,1.2
		c15.6,20.7,46.4,27.7,70.8,22.2c1.1-0.3,2.3-0.5,3.4-0.8c-5.5,15.7-4.4,32.9,2.7,48.2c4.3,9.2,10.8,17.1,18.7,23.4
		c8.7,6.9,19.6,12.5,25.7,22.2c5.6,8.9,3.9,18.9-5.6,24c-2.4,1.3-3.3,5.5-0.9,7.3c0.9,0.7,1.8,1.4,2.7,2.1c5.3,4,20,11.6,22.3,11.8
		c21,2.5,35.2-13,44.3-31.2c10.6-21.4,7.9-47.5-3.9-67.8c-9.4-16.3-27.9-32.5-20.6-53.1c2.6-7.4,8-13.7,13.2-19.4
		c6-6.5,12.4-12.5,18.1-19.3c5.7-6.7,10.7-13.9,13.5-22.3c4.1-12.2,2.1-25.4-1-37.6C440.1,239.7,431.5,213.8,422.4,188.4z"/>
</g>
<g id="face_x2F_Calm">
	<path id="_xD83D__xDD8D_-Ink_00000051351425557550104820000003458786148439495319_" class="st1" d="M309.6,340
		c-5.5,1.6-11.5,1.8-17.1,0.1c-5.1-1.5-10.4-4.8-14.1-9.2c-3.4-3.9-5.5-8.7-5.5-13.7c0-0.5,0.2-1.1,0.5-1.4c0.3-0.4,0.8-0.7,1.3-0.8
		c0.5-0.2,1.1-0.1,1.6,0.2c0.4,0.2,0.8,0.5,1,1c0.6,0.8,1.2,1.5,1.8,2.3c4.7,5.8,9.2,10.1,16.2,11.6c3.8,0.8,7.6,0.5,11.1-0.8
		c3.7-1.3,7.1-3.7,9.8-6.9c1.2-1.3,2.6-2,4-2c1.6,0,3.1,0.8,4.3,1.9c1.2,1.2,1.9,2.7,2,4.3c0.1,1.4-0.4,2.9-1.6,4.2
		C320.6,335.1,315.3,338.3,309.6,340z M309.4,267.9c5.7,3.4,14.4,11.5,8.2,20.1c-7.2,7.6-17.6-1.1-22.6-5c-4.8-3-10.1,4.8-5.6,8.3
		c36.9,27.3,51.8-22.4,22.9-27.4C309.1,263.4,308,266.9,309.4,267.9z M256.3,252.8c-1.9-1.2-4-1.6-6.3-0.5c-1.9,0.8-5.1,3.7-7.4,7.3
		c-1.6,2.5-2.7,5.5-2.4,8.7c0.1,0.8-0.2,1.2-0.6,1.6c-0.3,0.3-0.8,0.5-1.3,0.6c-0.5,0.1-1,0-1.4-0.2c-0.8-0.2-1.3-0.8-1.4-1.2
		c-1.6-4.2-0.9-8.9,0.9-13.2c2.3-5.7,6.8-10.5,9.7-12.1c4.9-2.7,10.7-2.8,15.5-0.1c4.1,2.3,6.8,6,9.4,9.8c0.5,0.8,1.1,1.6,1.6,2.3
		c1.2,1.6,1.2,3.1,0.8,4.4c-0.5,1.5-1.7,2.7-3.3,3.4c-1.4,0.6-3.1,0.7-4.5,0.1c-1.2-0.5-2.3-1.6-3.1-3.3
		C261,257.6,259,254.4,256.3,252.8L256.3,252.8z M349,259.2c-1.2,0.7-2.3,0.8-3.6,0.4c-0.8-0.2-1.5-0.7-2.1-1.3
		c-0.6-0.6-1-1.3-1.2-2.1c-0.4-2-1.5-3.9-3-5.1c-1.3-1-3-1.6-4.9-1.3c-2,0.3-4,1.6-5.2,3.1c-0.5,0.5-0.8,1.1-1.2,1.6
		c-0.7,1.1-1.3,2.1-2.2,2.9c-0.3,0.2-0.9,0.5-1.3,0.5c-0.2,0-0.4,0-0.6-0.1c-2-2-2.3-3.5-2.3-5c0.1-1.6,0.7-3.2,1.7-4.7
		c2.3-3.5,6.9-6.4,9.9-7.1c4.1-0.9,8.3,0.2,11.6,2.5c3.4,2.3,5.9,6.1,6.7,10.3c0.2,1,0.2,2.1-0.2,3C350.7,257.9,350,258.7,349,259.2
		z M265.5,215.2c-2.5,2.4-5.5,2.8-8.4,3.1c-1.6,0.2-3,0.3-4.3,0.6c-3.6,0.8-7.1,2-10.4,3.8c-3.4,1.9-7.1,4.1-9.8,6.9
		c-0.6,0.7-1.2,1.3-1.9,2.1c-0.5,0.7-1.1,1.3-1.6,1.9c-0.6,0.7-1.2,1.4-1.9,2.1c-0.3,0.6-0.5,0.8-0.5,0.9c-0.2,0.2-0.2,0.5-0.4,0.8
		c-0.2,0.4-0.5,0.8-0.7,1.2c-0.4,0.7-0.6,0.9-0.8,0.9c-0.3,0.2-0.6,0.2-0.9,0.2c-0.2-0.1-0.5-0.2-0.8-0.4c-1.3-1.1-1.6-2.9-1.6-4.8
		c0.1-2.9,1.1-6,2.1-8c2.3-4.5,5.5-9.2,9.2-12.6c4.3-3.9,9.1-6.8,14.4-8.8c3.4-1.2,7.3-2.3,10.9-2.3c2.7,0.2,5.2,0.9,7.3,2.9
		c1.3,1.2,1.9,2.9,1.9,4.6C267.4,212.2,266.7,213.9,265.5,215.2z M354.1,237.6c-0.2,0.2-0.4,0.4-0.6,0.5c-0.2,0.2-0.5,0.2-0.8,0.1
		s-0.5-0.2-0.8-0.3c-0.2-0.2-0.3-0.4-0.4-0.8c-1.6-7.3-4.9-12.7-11.8-16.2c-3.4-1.7-7.3-2.8-10.9-3.7c-1.1-0.2-2.2-0.4-3.4-0.6
		c-3.6-0.5-7.1-1.1-9.5-4c-1.4-1.8-2-4-1.6-6c0.3-1.9,1.4-3.7,3.4-4.7c5.1-2.7,11.3-0.1,16.5,2.1c0.4,0.2,0.8,0.3,1.1,0.5
		c5,2.1,9.6,4.9,13.3,8.9c3,3.2,5.7,7.8,6.9,12.6C356.4,230,356.2,234,354.1,237.6z"/>
</g>
</svg>
