<svg xmlns="http://www.w3.org/2000/svg" width="72.051" height="54.542" viewBox="0 0 72.051 54.542">
  <path id="帽子收藏" d="M50.058,35.88c4.755,0,11.6-.973,11.6-6.629a3.958,3.958,0,0,0-.108-1.3L58.74,15.706c-.648-2.7-1.225-3.927-5.98-6.3C49.085,7.528,41.087,4.43,38.71,4.43c-2.2,0-2.846,2.846-5.476,2.846-2.522,0-4.4-2.125-6.773-2.125-2.27,0-3.747,1.549-4.9,4.719,0,0-3.17,9.006-3.6,10.3a4.882,4.882,0,0,0-.072.721c0,3.494,13.762,14.95,32.171,14.95m12.357-4.287a19.97,19.97,0,0,1,.648,3.747c0,5.4-5.98,8.322-13.8,8.322-17.724,0-33.251-10.375-33.251-17.22a7.21,7.21,0,0,1,.576-2.774C10.214,23.92,2,25.072,2,32.35,2,44.31,30.244,58.972,52.615,58.972c17.148,0,21.435-7.745,21.435-13.87,0-4.827-4.143-10.3-11.636-13.545" transform="translate(-2 -4.43)" fill="#6001d2"/>
</svg>
