<svg xmlns="http://www.w3.org/2000/svg" width="49.902" height="44.912" viewBox="0 0 49.902 44.912">
  <path id="首頁-最新活動icon" d="M46.912,7.99V42.921H6.99V7.99H46.912m0-4.99H6.99A4.973,4.973,0,0,0,2,7.99V42.921a4.973,4.973,0,0,0,4.99,4.99H46.912a4.973,4.973,0,0,0,4.99-4.99V7.99A4.973,4.973,0,0,0,46.912,3m-4.99,29.941H11.98v4.99H41.921v-4.99M21.961,12.98H11.98V27.951h9.98V12.98m4.99,4.99H41.921V12.98H26.951v4.99m14.971,4.99H26.951v4.99H41.921Z" transform="translate(-2 -3)" fill="#6001d2"/>
</svg>
