<svg xmlns="http://www.w3.org/2000/svg" width="66.082" height="66.082" viewBox="0 0 66.082 66.082">
  <path id="獎項紀錄icon" d="M54.866,2c-2.974,0-6.608,3.3-6.608,6.608H21.825C21.825,5.3,18.19,2,15.216,2H2V31.737a7.106,7.106,0,0,0,6.608,6.608h7.269c1.322,6.608,5.617,12.225,15.86,13.216v6.873c-9.912,1.52-9.912,9.648-9.912,9.648H48.258s0-8.128-9.912-9.648V51.562c10.243-.991,14.538-6.608,15.86-13.216h7.269a7.106,7.106,0,0,0,6.608-6.608V2H54.866M15.216,31.737H8.608V8.608h6.608V31.737m46.258,0H54.866V8.608h6.608Z" transform="translate(-2 -2)" fill="#6001d2"/>
</svg>
