<svg id="參加人數" xmlns="http://www.w3.org/2000/svg" width="108.866" height="54.433" viewBox="0 0 108.866 54.433">
  <path id="Path_324" data-name="Path 324" d="M54.433,36.619A48.132,48.132,0,0,1,73.666,40.7,13.538,13.538,0,0,1,81.65,53.085V55.9a4.549,4.549,0,0,1-4.536,4.536H31.753A4.549,4.549,0,0,1,27.217,55.9V53.13A13.442,13.442,0,0,1,35.2,40.747,47.359,47.359,0,0,1,54.433,36.619ZM18.144,37.753a9.072,9.072,0,1,0-9.072-9.072A9.1,9.1,0,0,0,18.144,37.753Zm5.126,4.99a31.674,31.674,0,0,0-5.126-.454A31.528,31.528,0,0,0,5.534,44.92,9.121,9.121,0,0,0,0,53.312V55.9a4.549,4.549,0,0,0,4.536,4.536H20.412v-7.3A20.406,20.406,0,0,1,23.27,42.742Zm67.452-4.99a9.072,9.072,0,1,0-9.072-9.072A9.1,9.1,0,0,0,90.722,37.753Zm18.144,15.559a9.121,9.121,0,0,0-5.534-8.392A30.837,30.837,0,0,0,85.6,42.742,20.407,20.407,0,0,1,88.454,53.13v7.3H104.33a4.549,4.549,0,0,0,4.536-4.536ZM54.433,6A13.608,13.608,0,1,1,40.825,19.608,13.59,13.59,0,0,1,54.433,6Z" transform="translate(0 -6)" fill="#6001d2"/>
</svg>
