<svg id="Group_497" data-name="Group 497" xmlns="http://www.w3.org/2000/svg" xmlns:xlink="http://www.w3.org/1999/xlink" width="70.03" height="69.999" viewBox="0 0 70.03 69.999">
  <defs>
    <clipPath id="clip-path">
      <rect id="Rectangle_189" data-name="Rectangle 189" width="70.03" height="69.999" fill="#fff"/>
    </clipPath>
  </defs>
  <g id="Group_494" data-name="Group 494" clip-path="url(#clip-path)">
    <path id="Path_371" data-name="Path 371" d="M0,37.045v-4.1c.041-.219.088-.437.123-.657.305-1.907.481-3.846.932-5.718A34.951,34.951,0,0,1,39.01.246,34.535,34.535,0,0,1,57.694,8.4c.18.152.364.3.667.549,0-.408,0-.652,0-.9q0-3.247,0-6.494A1.439,1.439,0,0,1,59.237.133a1.356,1.356,0,0,1,1.476.2,1.774,1.774,0,0,1,.559,1.542q0,18.662.005,37.323a2.309,2.309,0,0,1-.732,1.762c-1.206,1.179-2.389,2.38-3.582,3.572-1.228,1.228-1.816,1.233-3.027.027-1.065-1.06-1.777-1.061-2.839,0-2.515,2.513-5,5.057-7.554,7.528-1.434,1.387-1.715,2.189-.1,3.628a1.46,1.46,0,0,1,0,2.333c-.263.284-.557.542-.793.846a1.429,1.429,0,0,0,.058,1.873,1.445,1.445,0,0,0,1.87.185,4.247,4.247,0,0,0,.616-.536c1.184-1.173,1.8-1.174,2.98.005,1.072,1.067,1.781,1.073,2.839.016q3.99-3.986,7.977-7.975c.08-.08.163-.159.241-.242a1.527,1.527,0,0,0-.029-2.4c-.126-.132-.258-.258-.385-.388-.95-.964-.952-1.673.005-2.635,1.463-1.469,2.909-2.958,4.409-4.389a2.9,2.9,0,0,0,.961-2.287c-.032-5.97-.016-11.94-.016-17.909,0-.251-.012-.5.006-.752a1.5,1.5,0,0,1,1.139-1.513,1.463,1.463,0,0,1,1.728,1,34.217,34.217,0,0,1,2.788,17.605,34.181,34.181,0,0,1-8.584,19.558A34.367,34.367,0,0,1,41.044,69.454c-1.318.234-2.654.366-3.982.545h-4.1a3.761,3.761,0,0,0-.528-.113,33.324,33.324,0,0,1-15.275-4.817A34.552,34.552,0,0,1,.545,41.016C.3,39.7.179,38.369,0,37.045M35.011,49.583A14.589,14.589,0,1,0,20.42,35.011,14.651,14.651,0,0,0,35.011,49.583m1.445-39.414a1.452,1.452,0,0,0-1.6-1.413c-1.113.041-2.229.115-3.334.256a25.777,25.777,0,0,0-14.938,7.3,1.456,1.456,0,1,0,1.92,2.178c.473-.392.905-.833,1.374-1.231a22.472,22.472,0,0,1,11.236-5.235c1.323-.207,2.671-.255,4-.4a1.426,1.426,0,0,0,1.342-1.455" transform="translate(0 0)" fill="#fff"/>
    <path id="Path_372" data-name="Path 372" d="M193.324,190.346a2.9,2.9,0,1,1-2.883-2.912,2.871,2.871,0,0,1,2.883,2.912" transform="translate(-155.416 -155.337)" fill="#fff"/>
  </g>
</svg>
