<svg id="Group_510" data-name="Group 510" xmlns="http://www.w3.org/2000/svg" xmlns:xlink="http://www.w3.org/1999/xlink" width="53.023" height="53" viewBox="0 0 53.023 53">
  <defs>
    <clipPath id="clip-path">
      <rect id="Rectangle_189" data-name="Rectangle 189" width="53.023" height="52.999" fill="#6001d2"/>
    </clipPath>
  </defs>
  <g id="Group_494" data-name="Group 494" clip-path="url(#clip-path)">
    <path id="Path_371" data-name="Path 371" d="M0,28.048V24.942c.031-.166.066-.331.093-.5C.324,23,.457,21.533.8,20.115A26.463,26.463,0,0,1,29.536.186,26.148,26.148,0,0,1,43.682,6.358c.137.115.276.227.505.416,0-.309,0-.494,0-.678q0-2.458,0-4.917A1.09,1.09,0,0,1,44.851.1a1.026,1.026,0,0,1,1.118.152,1.343,1.343,0,0,1,.423,1.167q0,14.129,0,28.259a1.748,1.748,0,0,1-.554,1.334c-.913.892-1.809,1.8-2.712,2.7-.93.93-1.375.933-2.292.02-.806-.8-1.345-.8-2.149,0-1.9,1.9-3.785,3.829-5.719,5.7-1.086,1.05-1.3,1.657-.079,2.747a1.105,1.105,0,0,1,0,1.767c-.2.215-.422.411-.6.641a1.082,1.082,0,0,0,.044,1.418,1.094,1.094,0,0,0,1.416.14,3.216,3.216,0,0,0,.467-.406c.9-.888,1.36-.889,2.257,0,.812.808,1.349.812,2.149.012q3.021-3.018,6.04-6.038c.061-.061.124-.12.182-.184a1.156,1.156,0,0,0-.022-1.816c-.1-.1-.195-.2-.292-.294a1.19,1.19,0,0,1,0-2c1.108-1.113,2.2-2.239,3.338-3.323a2.192,2.192,0,0,0,.728-1.732c-.024-4.52-.012-9.04-.012-13.56,0-.19-.009-.38,0-.569a1.137,1.137,0,0,1,.862-1.146,1.108,1.108,0,0,1,1.308.756,25.907,25.907,0,0,1,2.111,13.33A25.88,25.88,0,0,1,46.377,44a26.021,26.021,0,0,1-15.3,8.587c-1,.177-2.01.277-3.015.413H24.955a2.847,2.847,0,0,0-.4-.085A25.231,25.231,0,0,1,12.99,49.267,26.161,26.161,0,0,1,.413,31.055c-.186-.993-.277-2-.413-3.007m26.508,9.493A11.046,11.046,0,1,0,15.461,26.508,11.093,11.093,0,0,0,26.508,37.541M27.6,7.7a1.1,1.1,0,0,0-1.215-1.07c-.843.031-1.688.087-2.524.194a19.517,19.517,0,0,0-11.31,5.527A1.1,1.1,0,1,0,14.007,14c.358-.3.685-.631,1.04-.932A17.015,17.015,0,0,1,23.554,9.1c1-.157,2.022-.193,3.032-.3A1.079,1.079,0,0,0,27.6,7.7" transform="translate(0 0)" fill="#6001d2"/>
    <path id="Path_372" data-name="Path 372" d="M191.917,189.639a2.194,2.194,0,1,1-2.182-2.205,2.174,2.174,0,0,1,2.182,2.205" transform="translate(-163.215 -163.132)" fill="#6001d2"/>
  </g>
</svg>
