<svg xmlns="http://www.w3.org/2000/svg" width="73.89" height="64.106" viewBox="0 0 73.89 64.106">
  <path id="過去活動" d="M41.083,3.084,22.761,21.406a6.608,6.608,0,0,0-1.918,4.663V59.108a6.634,6.634,0,0,0,6.614,6.614H57.223a6.661,6.661,0,0,0,6.085-4L74.089,36.553a9.937,9.937,0,0,0-9.128-13.824H46.276L49.418,7.582a4.987,4.987,0,0,0-1.356-4.531,4.92,4.92,0,0,0-6.978.033ZM7.614,65.722a6.634,6.634,0,0,0,6.614-6.614V32.65A6.614,6.614,0,1,0,1,32.65V59.108A6.634,6.634,0,0,0,7.614,65.722Z" transform="translate(-1 -1.616)" fill="#6001d2"/>
</svg>
