<?xml version="1.0" encoding="utf-8"?>
<!-- Generator: Adobe Illustrator 26.0.1, SVG Export Plug-In . SVG Version: 6.00 Build 0)  -->
<svg version="1.1" id="圖層_1" xmlns="http://www.w3.org/2000/svg" xmlns:xlink="http://www.w3.org/1999/xlink" x="0px" y="0px"
	 viewBox="0 0 473 567" style="enable-background:new 0 0 473 567;" xml:space="preserve">
<style type="text/css">
	.st0{fill-rule:evenodd;clip-rule:evenodd;fill:#FFFFFF;}
	.st1{fill-rule:evenodd;clip-rule:evenodd;}
</style>
<g id="head_x2F_hat-hip" transform="translate(78.591549, 38.043053)">
	<path id="_xD83C__xDFA8_-Background_00000012454823436470469320000015014398212362434991_" class="st0" d="M310.1,250.5
		c-0.3-17.8-0.7-35.9-3.3-53.5c-2.6-17.2-9.7-32.8-21.9-45.3c-25.9-26.6-63.6-33.1-98.6-39l-59.9-10.2c-18.3-3.1-37.7-8.1-56.2-3.7
		C61.2,101,53.4,106,46.4,112c-6.8,5.7-14.1,11.9-18.7,19.6c-4.6,7.7-6.2,16.8-7.7,25.5c-1.7,9.9-3,19.8-3.9,29.8
		c-1.9,20-2.1,40.1-0.8,60.1c0.7,9.7,1.7,19.4,3,29c0.7,4.8,1.4,9.5,2.3,14.3c0.2,1.4,0.4,2.9,0.7,4.5c-1.9,5.4-3,10.9-2.9,16.5
		c0.3,16.3,14,26.6,27.9,32.1c8,3.2,16.5,5.4,24.4,8.9c8.3,3.8,14,9.9,19.7,16.8c10.8,13.3,23.1,25.2,37.1,35.1
		c29.6,21.1,67.2,31,103.1,23.5c8.6-1.8,17.3-4.6,25.1-8.9c8.2-4.5,14.3-11,19.5-18.7c9.6-14.3,16.5-30.3,21.7-46.7
		c5.3-16.7,9.1-33.4,11.1-50.8C310,285.4,310.4,267.9,310.1,250.5L310.1,250.5z"/>
	<path id="_xD83D__xDD8D_-Ink_00000008847988383971410610000003258827713218412469_" class="st1" d="M119.1,40.5
		c24.8-3.4,59,7.7,71.3,30c58.9-13.9,133.2-14.3,181.7,31.9c50.7,54.9-13,127.2-55.2,143.5c3.1,14.9-1.7,110.6-35.6,153.3
		c-26.9,36.2-89.5,52.8-118.5,9.7l-0.2-0.4c-3.1-5-0.4-4.8,2.8-1.1c28.4,25,67,25.4,96.7-1c55.7-48.2,50-166.2,23.5-234.5
		C210,163.5,129.2,186.4,77,243.3l3.5,21.2c0.6,3.6,1.3,7.2,1.8,10.9c0.3,2.3,0.4,4.6-1.2,6.5c-5.3,6.2-14.3-3.1-21.7-6.8
		c-2.2-0.3-4.4-0.4-6.5-0.3c-35.4,4.6-28.5,73.4,10.5,61.3c3.3-2,6.1-1.4,7.4,1.5c9.3,8.5,15.4,23.7,30.8,38.3
		c5.4,5.5,10.4,10.1,16.5,14.5c3.6,3.6,14.4,7.3,11,13.6c-6.5,14.2-44.9-30.3-51.6-42.6c-21.2,8.4-44.8,5.5-66.8,3.5
		c-116.2-6-100.7-128.6-5.4-205.9c17.9-13.2,37.7-24,58.3-32.3c2.8-1.1,1.6-5.7-1.3-4.6c-13.6,5.5-26.9,12-39.5,19.6l0-4.5
		c0-7.6,0.1-15.5,1.4-22.5c0.7-4.8,1.8-10,3.5-13.8C29.8,89,62.9,48.2,119.1,40.5z M51.4,290.6c1.8-1.7,5.1,0.3,6.7,0.3
		c4.1,0.6,8,2.3,11,4.4c2,1.1,3.4,2.2,4.6,3.1l0,0c0,0,0,0,0,0l0.1,0.1c1.7,1.2,7.9,8,4,6.2c-0.3-0.4-0.6-0.7-0.9-1.1
		c0,0-0.1,0.1-0.1,0.1l0.2,0.3c3.3,5-2.4-0.3-3.3-1.7c0,0-0.1,0.1-0.1,0.1l1.2,1.4c0.2,0.2,0.3,0.4,0.4,0.5l0.2,0.2
		c3.9,3.8,4,7.2-0.5,1.6c0.2,0.3,0.3,0.5,0.3,0.8l0.3,0.3c3.5,4.6,0.7,2.9-1.1,1l-0.1-0.2l0,0c1.6,2.5-1.6,0.8-2.2-0.6l0-0.1
		c-0.6-0.5-1-1.1-1.1-1.2l0,0c-3-3.1-7.4-5.7-11.2-6.9c-0.5-0.1-1.1-0.2-1.6-0.2c-2.2-0.5-4.5-0.8-6.8-1c-0.3,0-0.6-0.2-0.8-0.5
		c-3.5-0.1-2.4-1.5-1-1.8l0,0l-0.3,0c-2.2-0.2-3.8-1-1.5-1.5l0.3-0.1c0-0.1-0.1-0.1-0.1-0.2c-1.9-0.2-0.7-2.1,0.4-1.6
		c-0.5-1.5,1.6-0.7,1.9-1c0.2-0.2,0.4-0.4,0.6-0.4C51.4,290.6,51.1,290.6,51.4,290.6z M63.2,266.7l-0.5,0.3
		c-0.4,0.2-0.7,0.4-1.1,0.4c0.5,0.2,1.1,0.5,1.6,0.7c0-0.3,0-0.6,0-1L63.2,266.7z"/>
</g>
<g id="face_x2F_Calm" transform="translate(112.183099, 77.354207)">
	<path id="_xD83D__xDD8D_-Ink_00000048496954979154819640000005930211233264864410_" class="st1" d="M206.2,324.7
		c-5.8,1.7-12.1,1.8-18.1,0.1c-5.4-1.6-11-5.1-14.9-9.7c-3.5-4.1-5.8-9.1-5.7-14.4c0-0.6,0.2-1.1,0.6-1.5c0.4-0.4,0.9-0.7,1.4-0.8
		c0.6-0.1,1.1-0.1,1.6,0.1c0.5,0.2,0.8,0.6,1.1,1.1c0.6,0.8,1.2,1.6,1.8,2.4c4.9,6.1,9.7,10.6,17.1,12.2c4,0.9,8,0.5,11.7-0.9
		c3.9-1.4,7.5-4,10.3-7.2c1.3-1.5,2.7-2.1,4.2-2.1c1.6,0,3.3,0.8,4.5,2c1.2,1.2,2,2.8,2.1,4.5c0.1,1.5-0.4,3.1-1.7,4.5
		C217.8,319.5,212.3,322.9,206.2,324.7z M206.1,248.6c6,3.6,15.1,12.1,8.7,21.2c-7.6,8-18.5-1.2-23.9-5.3c-5-3.2-10.6,5-6,8.8
		c38.9,28.8,54.7-23.7,24.2-28.9C205.7,243.7,204.5,247.5,206.1,248.6z M150,232.6c-1.9-1.2-4.2-1.7-6.7-0.5c-2,0.9-5.4,3.9-7.8,7.8
		c-1.6,2.7-2.8,5.8-2.6,9.1c0.1,0.8-0.2,1.3-0.7,1.7c-0.3,0.3-0.9,0.6-1.4,0.6c-0.5,0.1-1.1,0-1.5-0.1c-0.9-0.3-1.3-0.8-1.5-1.3
		c-1.7-4.5-1-9.4,0.9-13.9c2.5-6.1,7.1-11.1,10.2-12.8c5.2-2.8,11.3-2.9,16.4-0.1c4.4,2.4,7.2,6.3,9.9,10.3c0.6,0.8,1.2,1.7,1.8,2.5
		c1.2,1.7,1.3,3.3,0.9,4.7c-0.5,1.6-1.8,2.9-3.5,3.6c-1.5,0.6-3.3,0.7-4.8,0.1c-1.3-0.6-2.5-1.6-3.3-3.5
		C155,237.8,152.8,234.4,150,232.6L150,232.6z M247.8,239.4c-1.3,0.7-2.4,0.9-3.8,0.5c-0.8-0.2-1.6-0.7-2.2-1.3
		c-0.6-0.6-1.1-1.4-1.2-2.2c-0.4-2.1-1.6-4.1-3.2-5.4c-1.4-1.1-3.2-1.7-5.2-1.4c-2.1,0.4-4.2,1.7-5.6,3.3c-0.5,0.5-0.8,1.2-1.2,1.8
		c-0.7,1.1-1.4,2.2-2.3,3c-0.4,0.3-0.9,0.5-1.4,0.5c-0.2,0-0.4,0-0.6-0.1c-2.1-2.1-2.5-3.7-2.5-5.3c0.1-1.7,0.7-3.4,1.8-5
		c2.5-3.7,7.3-6.8,10.5-7.5c4.4-0.9,8.8,0.2,12.3,2.6c3.6,2.5,6.3,6.5,7.1,10.9c0.2,1.1,0.1,2.2-0.3,3.2
		C249.5,238.1,248.8,238.9,247.8,239.4z M159.7,192.9c-2.6,2.6-5.8,3-8.9,3.3c-1.8,0.2-3.2,0.4-4.5,0.7c-3.8,0.9-7.5,2.1-11,4
		c-3.6,1.9-7.5,4.3-10.3,7.3c-0.7,0.7-1.3,1.5-1.9,2.2c-0.6,0.7-1.1,1.3-1.7,2c-0.7,0.7-1.3,1.5-1.9,2.3c-0.4,0.6-0.5,0.8-0.5,1
		c-0.1,0.2-0.3,0.5-0.4,0.8c-0.2,0.4-0.5,0.9-0.7,1.3c-0.4,0.7-0.7,0.9-0.9,1c-0.3,0.2-0.7,0.2-1,0.2c-0.3,0-0.6-0.2-0.8-0.4
		c-1.4-1.1-1.8-3-1.7-5c0.1-3,1.2-6.4,2.2-8.4c2.4-4.8,5.7-9.8,9.7-13.3c4.6-4.1,9.5-7.2,15.3-9.3c3.6-1.3,7.7-2.5,11.5-2.4
		c2.8,0.1,5.4,0.9,7.6,3c1.3,1.3,2,3.1,2,4.9C161.7,189.8,161,191.6,159.7,192.9z M253.2,216.5c-0.2,0.3-0.4,0.5-0.7,0.6
		c-0.3,0.1-0.6,0.2-0.9,0.1c-0.3,0-0.6-0.2-0.8-0.4c-0.2-0.2-0.4-0.4-0.4-0.8c-1.8-7.7-5.2-13.4-12.4-17.1c-3.6-1.8-7.7-3-11.6-3.9
		c-1.1-0.3-2.3-0.4-3.5-0.6c-3.8-0.6-7.6-1.2-10-4.2c-1.5-1.8-2.1-4.2-1.8-6.3c0.3-2,1.5-3.9,3.7-5c5.3-2.8,12-0.1,17.4,2.3
		c0.4,0.2,0.8,0.3,1.2,0.5c5.3,2.2,10.1,5.2,14,9.4c3.1,3.3,6,8.3,7.2,13.3C255.6,208.6,255.4,212.9,253.2,216.5z"/>
</g>
<g id="facial-hair_x2F_Goatee-1" transform="translate(104.577451, 109.479380)">
	<path id="_xD83D__xDD8D_-Ink_00000176756636005168145070000012828868152672636346_" class="st1" d="M214.5,247.4
		c-8.8-4-24.7-0.5-30.4,0.9c-13.4,3.2-26.8,10.1-31,21c-4.7,12.2,4.7,16.1,6,15.5c9.3,0.7,20.3-5.2,30-6.7
		c7.9-1.2,16.2-2.3,23.6-6.5c5.4,3,17.6,4.6,27.4,7.2c8.4,2.2,12,7,19.7,6c9.3-1.2,5.5-20.8-4.9-28.7
		C243.6,247.4,224.5,243.8,214.5,247.4z M232,331c-7.7,1.9-8.2-15-9.1-21c-0.7-4.7-4.5-16.7-14.2-16.2s-13.3,10.6-12.8,16.9
		c0.3,4.1,4.1,24.7-7.9,27.3c-7.6,0-16.5-0.5-24.5-2c-9.4-2.1-21.7-9.6-25,5.1c-1.2,5.3,40.5,21.1,58.9,22.5
		c18.7,3.8,40.6-2,54-16.4c3-3.3,11.6-16.8,12.2-20.1c1.3-7-1.7-11.5-10.3-9C247.3,321.4,237,329.8,232,331z"/>
</g>
<g id="accessories_x2F_Glasses-5" transform="translate(88.521127, 88.978474)">
	<path id="_xD83D__xDD8D_-Ink_00000060029313725214170690000004290680361822365372_" class="st1" d="M285.4,250.5
		c-11.9,5.7-28.5-2.7-36.5-11.6c-2.9-3.2-5.2-12.5-4-18.3c3-15.9,14.5-25.4,26.5-28.6c16.7-4.5,33.5,6.9,31.6,20.4
		C301,225.1,298.2,243.6,285.4,250.5 M204.3,220c-1,17.3-14.8,32.4-31.4,36.9c-26.7,7.5-39.9-11.3-45.9-31.6c-0.6-2-2-8.2,1.8-13.4
		c14.7-20.7,50.6-17.2,68.6-11.5C202.6,205.4,204.7,212.7,204.3,220 M298.4,190.2C298.4,190.2,298.3,190.2,298.4,190.2
		c-0.1,0-0.1,0-0.2-0.1C298.2,190.1,298.3,190.2,298.4,190.2 M320.7,192.2c-1.6-17.6-56.8-10.9-63.2-9.4
		c-17.6,5.2-32.8,19.3-52.5,13.1c-20.4-22.8-89.1-16.2-103.5-4.6c-2.7-1.1-6-0.5-9.6,0.5c-18-0.7-100.4,5.6-83.6,28.6
		c2.6,1.8,5.1,0,5.2-3.7c87.8-31.7,79.3-2,89.7-5.5c1.6,0.5,3.3,0.7,4.7,1.1c8.1,2.6,10.8,1.8,11.9,10.8
		c7.3,69.9,100.4,45.8,92.7-11.6c7.6-0.4,14.2-3.7,22.2-0.5c5.5,54,49,56.2,62.1,37.5c9.9-13,6-32.6,19.5-42.8
		C321.6,210.1,322,195,320.7,192.2"/>
</g>
</svg>
