<svg xmlns="http://www.w3.org/2000/svg" width="332.801" height="272.116" viewBox="0 0 332.801 272.116"><g transform="translate(-102.368 -1287.673)"><g transform="translate(102.368 1287.673)"><path d="M298.562,1292.466c.093,0,.189,0,.286.009.908.054,1.837.343,2.479,2.077a10.078,10.078,0,0,0,4.021,4.937l8.581,5.811c27.247,18.451,110.165,74.6,115.77,78.474a.516.516,0,1,1-.077,1.008l-.107.064-.119.071c-7.292,3.039-7.939,8.588-7.52,12.044-.523.264-.965.536-1.354.775-.236.145-.458.282-.622.367a7.13,7.13,0,0,0-3.942,6.692c.024,1.034.012,1.85,0,2.506-.068,4.437.883,6.051,4.845,8.224.567.311,1.208.663,2.015,1.139q1.151.678,2.306,1.348.991.578,1.981,1.157l.024.014a5.842,5.842,0,0,1-.049,4.422c-4.982,2.893-5.47,7.117-4.993,10.167a3.64,3.64,0,0,1,.022.867,9.517,9.517,0,0,0,2.637,8.005l0,1.829c.006,2.169.012,4.41,0,6.608a7.836,7.836,0,0,0-2.627,6.251c.014.753.014,1.507.014,2.3,0,.926,0,1.883.024,2.853a1.352,1.352,0,0,1-.006.182,2.067,2.067,0,0,1-.387.271c-2.612,1.5-6.778,3.914-11.432,6.605-10.625,6.145-23.849,13.792-26.726,15.389a7.132,7.132,0,0,0-3.929,7.529c.1.753.092.95-.783,1.452-5.616,3.223-11.28,6.554-16.758,9.775q-3.008,1.768-6.017,3.534a3.693,3.693,0,0,1-.438.224l-.086-.073a12.87,12.87,0,0,0-3.314-2.009c-.318-.147-.618-.286-.838-.406a6.206,6.206,0,0,0-3.016-.782,7.248,7.248,0,0,0-3.5.986c-2.56,1.385-7.712,4.159-14.234,7.671-34.805,18.741-72.192,38.9-77.294,42.039-5.259-3.1-37.218-21.321-65.483-37.407-58.524-33.308-59.191-33.584-59.476-33.7a1.374,1.374,0,0,1-.2-.1,2.893,2.893,0,0,1-.106-.913c-.012-6.292-.253-36.928-.4-46.257a8.318,8.318,0,0,0-5.148-8.077c-2.693-1.288-5.291-2.585-7.722-3.857a1.825,1.825,0,0,1-.4-.267c0-.02,0-.048,0-.084a6.873,6.873,0,0,0-4.13-6.709c-.645-.309-1.326-.7-2.047-1.121-.311-.18-.621-.359-.934-.536a1.174,1.174,0,0,1-.1-.065l.044-.035c2.766-2.111,56.985-38.687,86.113-58.337,13.525-9.124,23.3-15.716,25.075-16.934,3.992-2.734,7.9-5.406,11.862-8.028a8.157,8.157,0,0,0,3.031-3.512c1.161-2.563,2.177-2.754,3.6-2.754a10.255,10.255,0,0,1,1.253.085,6.549,6.549,0,0,0,.807.05,7.321,7.321,0,0,0,3.594-1.013l.055-.03c10.023-5.361,41.513-22.135,46.8-24.928a12.9,12.9,0,0,0,6.251-6.106,2.866,2.866,0,0,1,2.825-1.779m0-4.793a7.628,7.628,0,0,0-7.168,4.543,8.239,8.239,0,0,1-4.148,3.9c-5.245,2.772-36.457,19.4-46.817,24.939a2.932,2.932,0,0,1-1.389.476,1.79,1.79,0,0,1-.214-.013,14.993,14.993,0,0,0-1.848-.122c-3.8,0-6.228,1.741-7.962,5.57a3.427,3.427,0,0,1-1.311,1.494c-4,2.65-7.964,5.358-11.924,8.07-6.009,4.116-107.315,72.307-111.388,75.415a4.7,4.7,0,0,0,.612,8.084c1.082.611,2.143,1.267,3.262,1.8a2.136,2.136,0,0,1,1.413,2.237,4.979,4.979,0,0,0,2.97,4.749q3.9,2.041,7.876,3.935a3.623,3.623,0,0,1,2.423,3.831c.149,9.233.391,40.027.4,46.189,0,2.448.815,4.417,3.264,5.43.826.342,114.863,65.21,124.436,70.856a4.771,4.771,0,0,0,2.425.733,4.09,4.09,0,0,0,2.251-.707c4.937-3.2,78.909-42.889,91.489-49.7a2.632,2.632,0,0,1,1.22-.408,1.448,1.448,0,0,1,.711.192,17.559,17.559,0,0,1,3.285,1.806,4.677,4.677,0,0,0,3.143,1.331,5.935,5.935,0,0,0,2.976-.941c7.573-4.439,15.123-8.918,22.736-13.287a5.741,5.741,0,0,0,3.147-6.248,2.388,2.388,0,0,1,1.505-2.7c4.184-2.324,29.629-17.08,38.224-22.033a4.976,4.976,0,0,0,2.791-4.722c-.041-1.709,0-3.42-.037-5.13a3.066,3.066,0,0,1,1.156-2.694,4.106,4.106,0,0,0,1.471-3.335c.014-2.91,0-5.82-.007-8.73a3.8,3.8,0,0,0-1.119-2.966,4.742,4.742,0,0,1-1.539-4.437,8.379,8.379,0,0,0-.059-2.049c-.389-2.485.473-4.05,2.779-5.348,3.414-1.922,3.662-9.617.636-12.167a5.082,5.082,0,0,0-.7-.48c-1.425-.838-2.858-1.663-4.282-2.5-5.5-3.243-4.352-1.418-4.5-7.853a2.325,2.325,0,0,1,1.374-2.333c.656-.343,1.263-.783,1.923-1.115,1.825-.918,2.975-2.521,2.654-4.4-.688-4.031,1.25-6.142,4.623-7.524a5.733,5.733,0,0,0,.752-.407c3.968-2.361,4.162-6.432.351-9.068-6.53-4.516-116.638-79.061-124.389-84.312a5.28,5.28,0,0,1-2.214-2.633,7.347,7.347,0,0,0-6.69-5.2q-.288-.017-.569-.017Z" transform="translate(-102.368 -1287.673)" fill="#fff"/></g><g transform="translate(231.991 1325.443)"><g transform="translate(0)"><path d="M485.622,1400.054a2.568,2.568,0,1,1-2.568,2.568,2.571,2.571,0,0,1,2.568-2.568m0-2.054a4.622,4.622,0,1,0,4.622,4.622,4.622,4.622,0,0,0-4.622-4.622Z" transform="translate(-481 -1398)" fill="#fff"/></g></g><g transform="translate(293.613 1291.551)"><path d="M665.622,1301.054a2.568,2.568,0,1,1-2.568,2.567,2.571,2.571,0,0,1,2.568-2.567m0-2.054a4.622,4.622,0,1,0,4.622,4.622,4.622,4.622,0,0,0-4.622-4.622Z" transform="translate(-661 -1299)" fill="#fff"/></g><g transform="translate(239.954 1298.635)"><rect width="66.837" height="1.027" transform="translate(0 32.865) rotate(-29.453)" fill="#fff"/></g><g transform="translate(300.338 1299.516)"><rect width="1.027" height="154.031" transform="translate(0 0.845) rotate(-55.321)" fill="#fff"/></g><g transform="translate(110.683 1333.405)"><rect width="149.27" height="1.027" transform="translate(0 84.219) rotate(-34.347)" fill="#fff"/></g><g transform="translate(236.1 1334.821)"><rect width="1.027" height="152.029" transform="translate(0 0.072) rotate(-4.003)" fill="#fff"/></g><g transform="translate(239.182 1332.763)"><rect width="1.027" height="156.253" transform="translate(0 0.081) rotate(-4.524)" fill="#fff"/></g><g transform="translate(110.744 1386.45)"><path d="M268.128,1678.906l-.248-.122-141.046-69.838.456-.92,140.8,69.716c28.4-16.56,57.642-33.63,86.888-50.7,29.328-17.117,58.655-34.234,87.127-50.838l.518.887c-28.472,16.6-57.8,33.721-87.127,50.838s-58.655,34.234-87.127,50.838Z" transform="translate(-126.834 -1576.204)" fill="#fff"/></g><g transform="translate(251.426 1384.04)"><rect width="197.708" height="1.027" transform="translate(0 98.963) rotate(-30.036)" fill="#fff"/></g><g transform="translate(113.823 1415.533)"><rect width="1.027" height="148.508" transform="translate(0 0.919) rotate(-63.435)" fill="#fff"/></g><g transform="translate(121.009 1396.716)"><path d="M285.785,1704.106l-.245-.125-128.722-65.73.467-.915,128.476,65.6,171.959-96.748.5.9Z" transform="translate(-156.818 -1606.192)" fill="#fff"/></g><g transform="translate(253.143 1403.895)"><rect width="187.571" height="1.027" transform="translate(0 91.082) rotate(-29.051)" fill="#fff"/></g><g transform="translate(177.497 1411.948)"><path d="M397.722,1741.924l-.242-.123-75.658-38.343.464-.916,75.416,38.22,163.916-90.077.495.9Z" transform="translate(-321.822 -1650.686)" fill="#fff"/></g><g transform="translate(252.189 1523.136)"><rect width="1.027" height="32.094" transform="matrix(1, -0.021, 0.021, 1, 0, 0.022)" fill="#fff"/></g><g transform="translate(252.874 1492.441)"><rect width="1.027" height="30.612" fill="#fff"/></g><g transform="translate(249.45 1487.543)"><rect width="1.027" height="6.505" fill="#fff"/></g><g transform="translate(212.823 1499.862)"><rect width="34.236" height="1.027" transform="matrix(0.01, -1, 1, 0.01, 0, 34.235)" fill="#fff"/></g><g transform="translate(284.027 1505.339)"><rect width="1.027" height="33.209" transform="matrix(1, -0.01, 0.01, 1, 0, 0.011)" fill="#fff"/></g><g transform="translate(335.379 1499.525)"><rect width="1.027" height="12.324" transform="translate(0 0)" fill="#fff"/></g><g transform="translate(346.676 1456.725)"><rect width="1.027" height="48.96" transform="translate(0 0.014) rotate(-0.801)" fill="#fff"/></g><g transform="translate(359.685 1443.716)"><rect width="1.027" height="51.356" transform="translate(0 0.014) rotate(-0.764)" fill="#fff"/></g><g transform="translate(342.568 1453.305)"><rect width="1.027" height="54.091" transform="matrix(1, -0.006, 0.006, 1, 0, 0.007)" fill="#fff"/></g><g transform="translate(342.568 1445.434)"><rect width="1.027" height="7.874" transform="translate(0 0)" fill="#fff"/></g><g transform="translate(345.649 1443.723)"><rect width="1.027" height="7.874" fill="#fff"/></g><g transform="translate(373.721 1428.146)"><rect width="1.027" height="7.874" fill="#fff"/></g><g transform="translate(376.118 1427.119)"><rect width="1.027" height="7.874" transform="translate(0 0)" fill="#fff"/></g><g transform="translate(137.914 1440.54)"><path d="M234.827,1757.866,206.2,1744.082l7.461-9.877.819.619-6.705,8.877,26.832,12.919,7.65-7.882.737.715Z" transform="translate(-206.199 -1734.204)" fill="#fff"/></g><g transform="translate(173.826 1455.865)"><rect width="1.027" height="33.373" transform="translate(0 0)" fill="#fff"/></g><g transform="translate(170.026 1463.579)"><rect width="1.027" height="23.622" fill="#fff"/></g><g transform="translate(137.85 1450.335)"><path d="M234.673,1779.749l-28.285-13.793-.377-3.015,1.019-.128.308,2.463,27.175,13.252,7.652-6.62.672.777Z" transform="translate(-206.012 -1762.813)" fill="#fff"/></g><g transform="translate(165.918 1463.579)"><rect width="1.027" height="3.081" fill="#fff"/></g><g transform="translate(143.666 1455.705)"><rect width="1.027" height="18.144" transform="translate(0)" fill="#fff"/></g><g transform="translate(147.089 1457.417)"><rect width="1.027" height="17.802" transform="translate(0)" fill="#fff"/></g><g transform="translate(152.224 1459.813)"><rect width="1.027" height="18.144" transform="translate(0 0)" fill="#fff"/></g><g transform="translate(155.99 1461.867)"><rect width="1.027" height="17.802" transform="translate(0 0)" fill="#fff"/></g><g transform="translate(160.441 1463.921)"><rect width="1.027" height="17.802" transform="translate(0 0)" fill="#fff"/></g><g transform="translate(165.576 1466.66)"><rect width="1.027" height="18.144" transform="translate(0 0)" fill="#fff"/></g><g transform="translate(143.603 1473.049)"><rect width="1.027" height="34.602" transform="matrix(0.455, -0.89, 0.89, 0.455, 0, 0.915)" fill="#fff"/></g><g transform="translate(143.945 1470.653)"><rect width="1.027" height="33.837" transform="matrix(0.455, -0.89, 0.89, 0.455, 0, 0.915)" fill="#fff"/></g><g transform="translate(143.945 1465.86)"><rect width="1.027" height="33.837" transform="matrix(0.455, -0.89, 0.89, 0.455, 0, 0.915)" fill="#fff"/></g><g transform="translate(143.948 1459.355)"><rect width="1.027" height="34.142" transform="matrix(0.451, -0.892, 0.892, 0.451, 0, 0.917)" fill="#fff"/></g><g transform="translate(166.562 1466.192)"><rect width="1.027" height="8.273" transform="matrix(0.414, -0.91, 0.91, 0.414, 0, 0.935)" fill="#fff"/></g><g transform="translate(140.233 1457.161)"><path d="M243.3,1822.32l-30.332-16.415.169-5.424,3.9-1.846.439.928-3.333,1.578-.13,4.162,29.236,15.822,6.7-4.385v-33.986h1.027V1817.3Z" transform="translate(-212.972 -1782.755)" fill="#fff"/></g><g transform="translate(140.512 1474.766)"><path d="M243.824,1851.294l-30.037-16.21.488-.9,29.531,15.937,3.86-2.236.515.889Z" transform="translate(-213.788 -1834.18)" fill="#fff"/></g><g transform="translate(170.026 1491.309)"><rect width="1.027" height="4.45" transform="translate(0 0)" fill="#fff"/></g><g transform="translate(213.078 1525.097)"><rect width="1.027" height="46.157" transform="translate(0 0.891) rotate(-60.202)" fill="#fff"/></g><g transform="translate(213.085 1518.931)"><rect width="1.027" height="45.355" transform="translate(0 0.899) rotate(-61.113)" fill="#fff"/></g><g transform="translate(213.428 1511.057)"><rect width="1.027" height="44.89" transform="translate(0 0.901) rotate(-61.285)" fill="#fff"/></g><g transform="translate(213.438 1505.574)"><rect width="1.027" height="44.406" transform="matrix(0.463, -0.887, 0.887, 0.463, 0, 0.911)" fill="#fff"/></g><g transform="translate(200.837 1459.576)"><path d="M441.876,1853.96l-.243-.124L390,1827.676v-3.615l12.153-11.654v-6.745h1.027v7.183L391.027,1824.5v2.546l50.827,25.752,86.8-48.207v-3.745l-8.793-10.374.784-.664,9.036,10.661v4.726l-.264.147Z" transform="translate(-390 -1789.809)" fill="#fff"/></g><g transform="translate(201.13 1469.975)"><path d="M443.625,1869.946l-52.771-25.226.443-.927,51.3,24.524v-.638l.267-.146,86.613-47.348.493.9-86.346,47.2Z" transform="translate(-390.854 -1820.184)" fill="#fff"/></g><g transform="translate(177.483 1471.002)"><rect width="1.027" height="34.316" transform="translate(0 0.902) rotate(-61.39)" fill="#fff"/></g><g transform="translate(177.486 1481.613)"><rect width="1.027" height="26.804" transform="translate(0 0.905) rotate(-61.798)" fill="#fff"/></g><g transform="translate(177.484 1488.803)"><rect width="1.027" height="40.901" transform="translate(0 0.903) rotate(-61.504)" fill="#fff"/></g><g transform="translate(173.378 1493.595)"><rect width="1.027" height="45.492" transform="matrix(0.474, -0.88, 0.88, 0.474, 0, 0.904)" fill="#fff"/></g><g transform="translate(127.5 1476.137)"><rect width="1.027" height="97.595" transform="matrix(0.481, -0.877, 0.877, 0.481, 0, 0.901)" fill="#fff"/></g><g transform="translate(126.46 1469.298)"><rect width="1.027" height="16.264" transform="translate(0 0.887) rotate(-59.657)" fill="#fff"/></g><g transform="translate(126.811 1462.446)"><rect width="1.027" height="19.618" transform="translate(0 0.896) rotate(-60.751)" fill="#fff"/></g><g transform="translate(126.818 1455.253)"><rect width="1.027" height="19.453" transform="translate(0 0.904) rotate(-61.631)" fill="#fff"/></g><g transform="translate(126.832 1446.687)"><rect width="1.027" height="13.014" transform="translate(0 0.919) rotate(-63.435)" fill="#fff"/></g><g transform="translate(126.466 1437.114)"><rect width="1.027" height="17.325" transform="translate(0 0.893) rotate(-60.396)" fill="#fff"/></g><g transform="translate(253.132 1529.889)"><rect width="36.348" height="1.027" transform="translate(0 18.148) rotate(-29.953)" fill="#fff"/></g><g transform="translate(252.799 1523.378)"><rect width="36.311" height="1.027" transform="translate(0 17.465) rotate(-28.75)" fill="#fff"/></g><g transform="translate(252.802 1515.848)"><rect width="35.684" height="1.027" transform="translate(0 16.771) rotate(-28.033)" fill="#fff"/></g><g transform="translate(284.645 1503.173)"><rect width="66.314" height="1.027" transform="translate(0 31.166) rotate(-28.033)" fill="#fff"/></g><g transform="translate(284.085 1490.692)"><path d="M639.751,1914.1l-6.464-4.617-.117-8.085,6.651,4.631,46.561-25.331.5,7.758Zm-5.445-5.151,5.518,3.941,45.988-25.023-.353-5.5-45.706,24.865-5.529-3.85Z" transform="translate(-633.17 -1880.698)" fill="#fff"/></g><g transform="translate(284.312 1494.963)"><path d="M640.18,1918.881l-6.348-4.6.6-.832,5.831,4.224,46.276-24.5.481.907Z" transform="translate(-633.832 -1893.175)" fill="#fff"/></g><g transform="translate(335.269 1459.383)"><rect width="9.4" height="1.027" transform="matrix(0.838, -0.546, 0.546, 0.838, 0, 5.134)" fill="#fff"/></g><g transform="translate(338.73 1466.55)"><rect width="5.055" height="1.027" transform="matrix(0.88, -0.474, 0.474, 0.88, 0, 2.396)" fill="#fff"/></g><g transform="translate(335.305 1474.082)"><rect width="8.579" height="1.027" transform="translate(0 4.111) rotate(-28.634)" fill="#fff"/></g><g transform="translate(335.647 1480.244)"><rect width="8.579" height="1.027" transform="translate(0 4.111) rotate(-28.634)" fill="#fff"/></g><g transform="translate(335.313 1485.717)"><rect width="8.881" height="1.027" transform="matrix(0.886, -0.463, 0.463, 0.886, 0, 4.11)" fill="#fff"/></g><g transform="translate(290.189 1476.943)"><path d="M652.027,1880.223l-1.027-.008.117-14.948,7.118-3.953.35,14.474,5.025-2.734-.335-14.539,6.057-3.365.433,14.555,3.808-2.072-.42-14.6,6.768-3.759.371,14.709,4.671-2.541-.461-14.726,6.51-3.286v14.721l5.178-2.817v-14.793h1.027v15.4l-7.232,3.934v-14.78l-4.435,2.239.46,14.7-6.7,3.646-.371-14.692-4.739,2.632.421,14.611-5.83,3.171-.432-14.538-4.04,2.244.335,14.545-7.052,3.837-.349-14.457-5.11,2.838Z" transform="translate(-651 -1840.536)" fill="#fff"/></g><g transform="translate(286 1482.3)"><path d="M643.51,1881.993l-4.747-3.188.572-.853,4.229,2.84,44.844-24.608.494.9Z" transform="translate(-638.764 -1856.185)" fill="#fff"/></g><g transform="translate(252.794 1487.775)"><path d="M542.269,1911.422l-.5-.9,32.105-17.951,5.857,3.707,44.893-24.1.486.9-45.421,24.387-5.847-3.7Z" transform="translate(-541.768 -1872.179)" fill="#fff"/></g><g transform="translate(343.214 1441.047)"><path d="M809.627,1751.892l-3.74-.281.077-1.024,3.449.26,24.9-12.88,1.478-2.282.862.558-1.625,2.511Z" transform="translate(-805.888 -1735.685)" fill="#fff"/></g><g transform="translate(347.568 1436.573)"><path d="M819.094,1788.43l-.487-.9,25.468-13.723v-51.188H845.1v51.8Z" transform="translate(-818.606 -1722.614)" fill="#fff"/></g><g transform="translate(347.622 1472.035)"><rect width="29.428" height="1.027" transform="translate(0 14.373) rotate(-29.236)" fill="#fff"/></g><g transform="translate(371.325 1443.723)"><rect width="1.027" height="45.189" fill="#fff"/></g><g transform="translate(380.226 1432.764)"><rect width="1.027" height="48.614" transform="matrix(1, -0.007, 0.007, 1, 0, 0.007)" fill="#fff"/></g><g transform="translate(373.295 1455.256)"><rect width="58.6" height="1.027" transform="translate(0 29.451) rotate(-30.171)" fill="#fff"/></g><g transform="translate(369.871 1458.69)"><rect width="63.145" height="1.027" transform="translate(0 30.791) rotate(-29.185)" fill="#fff"/></g><g transform="translate(373.251 1487.81)"><rect width="1.027" height="8.835" transform="translate(0 0.836) rotate(-54.462)" fill="#fff"/></g><g transform="translate(380.814 1449.436)"><path d="M928.3,1780.06l-12.579-7.687.536-.876,12.069,7.376,33.725-18.684.5.9Z" transform="translate(-915.718 -1760.188)" fill="#fff"/></g><g transform="translate(380.814 1444.985)"><path d="M928.3,1767.06l-12.579-7.687.536-.877,12.069,7.376,33.725-18.684.5.9Z" transform="translate(-915.718 -1747.188)" fill="#fff"/></g><g transform="translate(383.253 1418.287)"><path d="M932.593,1690.814l-9.751-8.456.673-.776,9.2,7.977L968,1669.2l.513.889Z" transform="translate(-922.842 -1669.201)" fill="#fff"/></g><g transform="translate(380.582 1423.285)"><path d="M927.518,1704.862l-12.477-10.371.657-.79,11.929,9.915,34.588-19.815.511.891Z" transform="translate(-915.041 -1683.802)" fill="#fff"/></g><g transform="translate(380.46 1429.582)"><path d="M927.241,1721.06l-12.557-9.87.635-.808,12.016,9.445,31.2-17.632.505.894Z" transform="translate(-914.685 -1702.194)" fill="#fff"/></g><g transform="translate(380.616 1441.432)"><path d="M927.576,1755.78l-12.435-7.388.525-.883L927.6,1754.6l32.951-17.791.488.9Z" transform="translate(-915.141 -1736.809)" fill="#fff"/></g><g transform="translate(380.492 1438.479)"><path d="M927.322,1746.35l-12.544-8.389.571-.854,12.028,8.044,31.223-16.969.49.9Z" transform="translate(-914.777 -1728.182)" fill="#fff"/></g><g transform="translate(380.474 1433.518)"><path d="M927.277,1732.38l-12.552-9.2.607-.828,12.02,8.811,31.207-17.469.5.9Z" transform="translate(-914.725 -1713.691)" fill="#fff"/></g><g transform="translate(392.55 1439.272)"><rect width="1.027" height="20.541" fill="#fff"/></g><g transform="translate(400.424 1439.261)"><rect width="1.027" height="16.094" transform="translate(0 0.022) rotate(-1.219)" fill="#fff"/></g><g transform="translate(405.217 1436.533)"><rect width="1.027" height="16.433" fill="#fff"/></g><g transform="translate(410.694 1433.442)"><rect width="1.027" height="16.436" transform="matrix(1, -0.021, 0.021, 1, 0, 0.021)" fill="#fff"/></g><g transform="translate(415.829 1430.361)"><rect width="1.027" height="16.778" transform="translate(0 0.021) rotate(-1.169)" fill="#fff"/></g><g transform="translate(420.965 1427.29)"><rect width="1.027" height="17.117" transform="translate(0 0)" fill="#fff"/></g><g transform="translate(387.415 1439.272)"><rect width="1.027" height="16.775" fill="#fff"/></g><g transform="translate(387.415 1465.29)"><rect width="1.027" height="11.64" fill="#fff"/></g><g transform="translate(395.631 1467.002)"><rect width="1.027" height="5.135" transform="translate(0 0)" fill="#fff"/></g><g transform="translate(400.424 1464.606)"><rect width="1.027" height="4.108" transform="translate(0 0)" fill="#fff"/></g><g transform="translate(405.217 1461.867)"><rect width="1.027" height="4.45" transform="translate(0 0)" fill="#fff"/></g><g transform="translate(410.694 1458.786)"><rect width="1.027" height="4.45" transform="translate(0 0)" fill="#fff"/></g><g transform="translate(415.829 1456.047)"><rect width="1.027" height="4.108" transform="translate(0 0)" fill="#fff"/></g><g transform="translate(420.965 1452.966)"><rect width="1.027" height="4.45" fill="#fff"/></g><g transform="translate(373.295 1439.512)"><rect width="8.28" height="1.027" transform="translate(0 4.107) rotate(-29.736)" fill="#fff"/></g><g transform="translate(373.295 1446.016)"><rect width="8.28" height="1.027" transform="translate(0 4.107) rotate(-29.736)" fill="#fff"/></g><g transform="translate(373.295 1452.521)"><rect width="8.28" height="1.027" transform="translate(0 4.107) rotate(-29.736)" fill="#fff"/></g><g transform="translate(373.279 1458.35)"><rect width="8.455" height="1.027" transform="translate(0 4.449) rotate(-31.744)" fill="#fff"/></g><g transform="translate(373.279 1464.855)"><rect width="8.455" height="1.027" transform="translate(0 4.449) rotate(-31.744)" fill="#fff"/></g><g transform="translate(373.279 1471.359)"><rect width="8.455" height="1.027" transform="translate(0 4.449) rotate(-31.744)" fill="#fff"/></g><g transform="translate(373.279 1477.521)"><rect width="8.455" height="1.027" transform="translate(0 4.449) rotate(-31.744)" fill="#fff"/></g></g></svg>