<svg xmlns="http://www.w3.org/2000/svg" width="35.929" height="44.911" viewBox="0 0 35.929 44.911">
  <path id="首頁-參觀資訊icon" d="M35.438,2H21.965V17.719l-5.614-3.368-5.614,3.368V2H8.491A4.5,4.5,0,0,0,4,6.491V42.42a4.5,4.5,0,0,0,4.491,4.491H35.438a4.5,4.5,0,0,0,4.491-4.491V6.491A4.49,4.49,0,0,0,35.438,2m-.719,36.85c-.247.2-2.717,1.886-3.66,2.448-.943.651-4.6,2.74-4.02-1.3,1.415-8.174,4.154-13.024.876-10.913-.853.516-1.347.831-1.662.988-.292.247-.269.225-.516-.2s-.337-.4-.022-.629c0,0,5.008-4.02,6.849-4.154,1.752-.157,1.325,2,1.168,2.987C32.7,32.225,30.812,38.266,31.1,39.142c.247.876,2.088-.516,3.076-1.213,0,0,.135-.157.382.112.247.382.494.561.157.808m-1.594-16.5a2.313,2.313,0,1,1,2.313-2.313A2.31,2.31,0,0,1,33.125,22.345Z" transform="translate(-4 -2)" fill="#6001d2"/>
</svg>
