<svg xmlns="http://www.w3.org/2000/svg" width="60" height="70" viewBox="0 0 60 70">
  <path id="進行中活動" d="M50.667,7.667h-10.6a9.96,9.96,0,0,0-18.8,0h-10.6A6.686,6.686,0,0,0,4,14.333v50A6.686,6.686,0,0,0,10.667,71H31.033A22.478,22.478,0,0,1,26.3,64.333H10.667v-50h6.667v3.333A6.686,6.686,0,0,0,24,24.333H37.333A6.686,6.686,0,0,0,44,17.667V14.333h6.667V31.267a23.435,23.435,0,0,1,6.667,2V14.333A6.686,6.686,0,0,0,50.667,7.667Zm-20,6.667A3.333,3.333,0,1,1,34,11,3.343,3.343,0,0,1,30.667,14.333ZM47.333,37.667A16.667,16.667,0,1,0,64,54.333,16.673,16.673,0,0,0,47.333,37.667ZM51.633,61l-5.5-5.5a1.7,1.7,0,0,1-.5-1.167v-8.3A1.65,1.65,0,0,1,47.3,44.367h0a1.65,1.65,0,0,1,1.667,1.667v7.633l5,5a1.65,1.65,0,0,1,0,2.367h0A1.64,1.64,0,0,1,51.633,61Z" transform="translate(-4 -1)" fill="#6001d2"/>
</svg>
